<?xml version="1.0" encoding="UTF-8" standalone="no"?><svg xmlns="http://www.w3.org/2000/svg" xmlns:xlink="http://www.w3.org/1999/xlink" contentScriptType="application/ecmascript" contentStyleType="text/css" height="1873px" preserveAspectRatio="none" style="width:3790px;height:1873px;" version="1.1" viewBox="0 0 3790 1873" width="3790px" zoomAndPan="magnify"><defs><filter height="300%" id="f1wderyix4jdp1" width="300%" x="-1" y="-1"><feGaussianBlur result="blurOut" stdDeviation="2.0"/><feColorMatrix in="blurOut" result="blurOut2" type="matrix" values="0 0 0 0 0 0 0 0 0 0 0 0 0 0 0 0 0 0 .4 0"/><feOffset dx="4.0" dy="4.0" in="blurOut2" result="blurOut3"/><feBlend in="SourceGraphic" in2="blurOut3" mode="normal"/></filter></defs><g><text fill="#000000" font-family="sans-serif" font-size="18" lengthAdjust="spacingAndGlyphs" textLength="751" x="1518.6875" y="29.2419">Diagrama de Atividades - Fluxo de Compra de Produtos Cosméticos e Kits (E-Commerce)</text><rect fill="#E8F4F8" height="1823.4952" style="stroke: #E8F4F8; stroke-width: 1.0;" width="1224.875" x="10" y="38.2898"/><ellipse cx="481.5" cy="77.8057" fill="#000000" filter="url(#f1wderyix4jdp1)" rx="10" ry="10" style="stroke: none; stroke-width: 1.0;"/><rect fill="#FEFECE" filter="url(#f1wderyix4jdp1)" height="36.3441" rx="12.5" ry="12.5" style="stroke: #A80036; stroke-width: 1.5;" width="247" x="358" y="107.8057"/><text fill="#000000" font-family="sans-serif" font-size="12" lengthAdjust="spacingAndGlyphs" textLength="227" x="368" y="130.6337">Acessa a loja online da barbearia (/shop)</text><rect fill="#FEFECE" filter="url(#f1wderyix4jdp1)" height="36.3441" rx="12.5" ry="12.5" style="stroke: #A80036; stroke-width: 1.5;" width="429" x="267" y="220.4939"/><text fill="#000000" font-family="sans-serif" font-size="12" lengthAdjust="spacingAndGlyphs" textLength="409" x="277" y="243.322">Navega pelo catálogo e visualiza detalhes do produto/kit (/single-product)</text><rect fill="#FEFECE" filter="url(#f1wderyix4jdp1)" height="36.3441" rx="12.5" ry="12.5" style="stroke: #A80036; stroke-width: 1.5;" width="203" x="380" y="276.838"/><text fill="#000000" font-family="sans-serif" font-size="12" lengthAdjust="spacingAndGlyphs" textLength="183" x="390" y="299.6661">Clica em "Adicionar ao Carrinho"</text><polygon fill="#FEFECE" filter="url(#f1wderyix4jdp1)" points="403,749.2468,560,749.2468,572,761.2468,560,773.2468,403,773.2468,391,761.2468,403,749.2468" style="stroke: #A80036; stroke-width: 1.5;"/><text fill="#000000" font-family="sans-serif" font-size="11" lengthAdjust="spacingAndGlyphs" textLength="157" x="403" y="765.5148">Deseja continuar comprando?</text><text fill="#000000" font-family="sans-serif" font-size="11" lengthAdjust="spacingAndGlyphs" textLength="19" x="372" y="758.0238">Sim</text><text fill="#000000" font-family="sans-serif" font-size="11" lengthAdjust="spacingAndGlyphs" textLength="111" x="572" y="758.0238">Não / Fechar Compra</text><rect fill="#FEFECE" filter="url(#f1wderyix4jdp1)" height="36.3441" rx="12.5" ry="12.5" style="stroke: #A80036; stroke-width: 1.5;" width="237" x="20" y="793.2468"/><text fill="#000000" font-family="sans-serif" font-size="12" lengthAdjust="spacingAndGlyphs" textLength="217" x="30" y="816.0749">Retorna à vitrine e escolhe outros itens</text><rect fill="#FEFECE" filter="url(#f1wderyix4jdp1)" height="36.3441" rx="12.5" ry="12.5" style="stroke: #A80036; stroke-width: 1.5;" width="240" x="717.125" y="793.2468"/><text fill="#000000" font-family="sans-serif" font-size="12" lengthAdjust="spacingAndGlyphs" textLength="220" x="727.125" y="816.0749">Acessa a página do carrinho (/carrinho)</text><rect fill="#FEFECE" filter="url(#f1wderyix4jdp1)" height="36.3441" rx="12.5" ry="12.5" style="stroke: #A80036; stroke-width: 1.5;" width="274" x="700.125" y="905.935"/><text fill="#000000" font-family="sans-serif" font-size="12" lengthAdjust="spacingAndGlyphs" textLength="254" x="710.125" y="928.7631">Revisa o pedido e clica em "Finalizar Compra"</text><rect fill="#FEFECE" filter="url(#f1wderyix4jdp1)" height="69.0323" rx="12.5" ry="12.5" style="stroke: #A80036; stroke-width: 1.5;" width="323" x="675.625" y="1018.6233"/><text fill="#000000" font-family="sans-serif" font-size="12" lengthAdjust="spacingAndGlyphs" textLength="261" x="706.625" y="1041.4513">Preenche dados de entrega/retirada e contato:</text><text fill="#000000" font-family="sans-serif" font-size="12" lengthAdjust="spacingAndGlyphs" textLength="123" x="775.625" y="1057.7955">- Nome, CPF, Telefone</text><text fill="#000000" font-family="sans-serif" font-size="12" lengthAdjust="spacingAndGlyphs" textLength="303" x="685.625" y="1074.1396">- Endereço de entrega (ou opção Retirar na Barbearia)</text><rect fill="#FEFECE" filter="url(#f1wderyix4jdp1)" height="36.3441" rx="12.5" ry="12.5" style="stroke: #A80036; stroke-width: 1.5;" width="395" x="639.625" y="1107.6556"/><text fill="#000000" font-family="sans-serif" font-size="12" lengthAdjust="spacingAndGlyphs" textLength="375" x="649.625" y="1130.4837">Seleciona forma de pagamento (PIX / Cartão / Dinheiro na retirada)</text><rect fill="#FEFECE" filter="url(#f1wderyix4jdp1)" height="36.3441" rx="12.5" ry="12.5" style="stroke: #A80036; stroke-width: 1.5;" width="179" x="747.625" y="1163.9997"/><text fill="#000000" font-family="sans-serif" font-size="12" lengthAdjust="spacingAndGlyphs" textLength="159" x="757.625" y="1186.8278">Clica em "Confirmar Pedido"</text><rect fill="#FEFECE" filter="url(#f1wderyix4jdp1)" height="36.3441" rx="12.5" ry="12.5" style="stroke: #A80036; stroke-width: 1.5;" width="608" x="274.375" y="1771.4409"/><text fill="#000000" font-family="sans-serif" font-size="12" lengthAdjust="spacingAndGlyphs" textLength="588" x="284.375" y="1794.2689">Visualiza número do pedido, itens comprados, instruções de retirada/rastreio e QR Code PIX (se aplicável)</text><ellipse cx="578.375" cy="1838.785" fill="#FFFFFF" filter="url(#f1wderyix4jdp1)" rx="11" ry="11" style="stroke: #000000; stroke-width: 1.0;"/><ellipse cx="578.375" cy="1838.785" fill="#000000" rx="6" ry="6" style="stroke: #7F7F7F; stroke-width: 1.0;"/><rect fill="#FEFECE" filter="url(#f1wderyix4jdp1)" height="36.3441" rx="12.5" ry="12.5" style="stroke: #A80036; stroke-width: 1.5;" width="175" x="1008.375" y="1433.3762"/><text fill="#000000" font-family="sans-serif" font-size="12" lengthAdjust="spacingAndGlyphs" textLength="155" x="1018.375" y="1456.2043">Desfaz transação (Rollback)</text><rect fill="#FEFECE" filter="url(#f1wderyix4jdp1)" height="36.3441" rx="12.5" ry="12.5" style="stroke: #A80036; stroke-width: 1.5;" width="260" x="965.875" y="1546.0644"/><text fill="#000000" font-family="sans-serif" font-size="12" lengthAdjust="spacingAndGlyphs" textLength="240" x="975.875" y="1568.8925">Ajusta itens do carrinho e tenta novamente</text><rect fill="#FFF3E0" height="1823.4952" style="stroke: #FFF3E0; stroke-width: 1.0;" width="1207.625" x="1234.875" y="38.2898"/><rect fill="#FEFECE" filter="url(#f1wderyix4jdp1)" height="36.3441" rx="12.5" ry="12.5" style="stroke: #A80036; stroke-width: 1.5;" width="526" x="1362.625" y="164.1498"/><text fill="#000000" font-family="sans-serif" font-size="12" lengthAdjust="spacingAndGlyphs" textLength="429" x="1372.625" y="186.9779">Carrega catálogo de produtos ativos com fotos, preços e estoque disponível (</text><text fill="#000000" font-family="sans-serif" font-size="12" font-weight="bold" lengthAdjust="spacingAndGlyphs" textLength="73" x="1801.625" y="186.9779">tab_produto</text><text fill="#000000" font-family="sans-serif" font-size="12" lengthAdjust="spacingAndGlyphs" textLength="4" x="1874.625" y="186.9779">)</text><rect fill="#FEFECE" filter="url(#f1wderyix4jdp1)" height="36.3441" rx="12.5" ry="12.5" style="stroke: #A80036; stroke-width: 1.5;" width="329" x="1461.125" y="333.1821"/><text fill="#000000" font-family="sans-serif" font-size="12" lengthAdjust="spacingAndGlyphs" textLength="155" x="1471.125" y="356.0102">Envia requisição assíncrona</text><text fill="#000000" font-family="sans-serif" font-size="12" font-weight="bold" lengthAdjust="spacingAndGlyphs" textLength="151" x="1629.125" y="356.0102">POST /carrinho/adicionar</text><rect fill="#FEFECE" filter="url(#f1wderyix4jdp1)" height="36.3441" rx="12.5" ry="12.5" style="stroke: #A80036; stroke-width: 1.5;" width="373" x="1244.875" y="602.5586"/><text fill="#000000" font-family="sans-serif" font-size="12" lengthAdjust="spacingAndGlyphs" textLength="353" x="1254.875" y="625.3867">Atualiza badge do carrinho no cabeçalho com a nova contagem</text><rect fill="#FEFECE" filter="url(#f1wderyix4jdp1)" height="36.3441" rx="12.5" ry="12.5" style="stroke: #A80036; stroke-width: 1.5;" width="361" x="1250.875" y="658.9027"/><text fill="#000000" font-family="sans-serif" font-size="12" lengthAdjust="spacingAndGlyphs" textLength="341" x="1260.875" y="681.7308">Exibe notificação flutuante: "Produto adicionado ao carrinho!"</text><rect fill="#FEFECE" filter="url(#f1wderyix4jdp1)" height="36.3441" rx="12.5" ry="12.5" style="stroke: #A80036; stroke-width: 1.5;" width="364" x="1637.875" y="489.8703"/><text fill="#000000" font-family="sans-serif" font-size="12" lengthAdjust="spacingAndGlyphs" textLength="344" x="1647.875" y="512.6984">Exibe alerta: "Desculpe, quantidade indisponível em estoque."</text><rect fill="#FEFECE" filter="url(#f1wderyix4jdp1)" height="36.3441" rx="12.5" ry="12.5" style="stroke: #A80036; stroke-width: 1.5;" width="309" x="1826.75" y="849.5909"/><text fill="#000000" font-family="sans-serif" font-size="12" lengthAdjust="spacingAndGlyphs" textLength="289" x="1836.75" y="872.419">Exibe itens, quantidades, preços unitários e subtotal</text><rect fill="#FEFECE" filter="url(#f1wderyix4jdp1)" height="36.3441" rx="12.5" ry="12.5" style="stroke: #A80036; stroke-width: 1.5;" width="294" x="1834.25" y="962.2791"/><text fill="#000000" font-family="sans-serif" font-size="12" lengthAdjust="spacingAndGlyphs" textLength="274" x="1844.25" y="985.1072">Redireciona para o checkout (/carrinho-checkout)</text><rect fill="#FEFECE" filter="url(#f1wderyix4jdp1)" height="36.3441" rx="12.5" ry="12.5" style="stroke: #A80036; stroke-width: 1.5;" width="271" x="1845.75" y="1220.3438"/><text fill="#000000" font-family="sans-serif" font-size="12" lengthAdjust="spacingAndGlyphs" textLength="251" x="1855.75" y="1243.1719">Envia formulário de checkout para o backend</text><rect fill="#FEFECE" filter="url(#f1wderyix4jdp1)" height="36.3441" rx="12.5" ry="12.5" style="stroke: #A80036; stroke-width: 1.5;" width="355" x="1545" y="1715.0967"/><text fill="#000000" font-family="sans-serif" font-size="12" lengthAdjust="spacingAndGlyphs" textLength="335" x="1555" y="1737.9248">Redireciona para tela de confirmação (/compra-confirmada)</text><rect fill="#FEFECE" filter="url(#f1wderyix4jdp1)" height="36.3441" rx="12.5" ry="12.5" style="stroke: #A80036; stroke-width: 1.5;" width="387" x="2046.5" y="1489.7203"/><text fill="#000000" font-family="sans-serif" font-size="12" lengthAdjust="spacingAndGlyphs" textLength="367" x="2056.5" y="1512.5484">Exibe aviso de produto esgotado e solicita atualização do carrinho</text><rect fill="#E8F8F5" height="1823.4952" style="stroke: #E8F8F5; stroke-width: 1.0;" width="1047.875" x="2442.5" y="38.2898"/><rect fill="#FEFECE" filter="url(#f1wderyix4jdp1)" height="36.3441" rx="12.5" ry="12.5" style="stroke: #A80036; stroke-width: 1.5;" width="491" x="2585.75" y="389.5262"/><text fill="#000000" font-family="sans-serif" font-size="12" lengthAdjust="spacingAndGlyphs" textLength="394" x="2595.75" y="412.3543">Valida se o produto existe e se quantidade solicitada &lt;= estoque atual (</text><text fill="#000000" font-family="sans-serif" font-size="12" font-weight="bold" lengthAdjust="spacingAndGlyphs" textLength="73" x="2989.75" y="412.3543">tab_produto</text><text fill="#000000" font-family="sans-serif" font-size="12" lengthAdjust="spacingAndGlyphs" textLength="4" x="3062.75" y="412.3543">)</text><polygon fill="#FEFECE" filter="url(#f1wderyix4jdp1)" points="2779.25,445.8703,2883.25,445.8703,2895.25,457.8703,2883.25,469.8703,2779.25,469.8703,2767.25,457.8703,2779.25,445.8703" style="stroke: #A80036; stroke-width: 1.5;"/><text fill="#000000" font-family="sans-serif" font-size="11" lengthAdjust="spacingAndGlyphs" textLength="104" x="2779.25" y="462.1383">Estoque disponível?</text><text fill="#000000" font-family="sans-serif" font-size="11" lengthAdjust="spacingAndGlyphs" textLength="19" x="2748.25" y="454.6474">Sim</text><text fill="#000000" font-family="sans-serif" font-size="11" lengthAdjust="spacingAndGlyphs" textLength="98" x="2895.25" y="454.6474">Não / Sem Estoque</text><rect fill="#FEFECE" filter="url(#f1wderyix4jdp1)" height="36.3441" rx="12.5" ry="12.5" style="stroke: #A80036; stroke-width: 1.5;" width="369" x="2452.5" y="489.8703"/><text fill="#000000" font-family="sans-serif" font-size="12" lengthAdjust="spacingAndGlyphs" textLength="202" x="2462.5" y="512.6984">Adiciona item à sessão do carrinho (</text><text fill="#000000" font-family="sans-serif" font-size="12" font-weight="bold" lengthAdjust="spacingAndGlyphs" textLength="52" x="2664.5" y="512.6984">Carrinho</text><text fill="#000000" font-family="sans-serif" font-size="12" lengthAdjust="spacingAndGlyphs" textLength="4" x="2719.5" y="512.6984">/</text><text fill="#000000" font-family="sans-serif" font-size="12" font-weight="bold" lengthAdjust="spacingAndGlyphs" textLength="81" x="2726.5" y="512.6984">CarrinhoItem</text><text fill="#000000" font-family="sans-serif" font-size="12" lengthAdjust="spacingAndGlyphs" textLength="4" x="2807.5" y="512.6984">)</text><rect fill="#FEFECE" filter="url(#f1wderyix4jdp1)" height="36.3441" rx="12.5" ry="12.5" style="stroke: #A80036; stroke-width: 1.5;" width="226" x="2524" y="546.2145"/><text fill="#000000" font-family="sans-serif" font-size="12" lengthAdjust="spacingAndGlyphs" textLength="206" x="2534" y="569.0425">Recalcula subtotal e total do carrinho</text><polygon fill="#FEFECE" filter="url(#f1wderyix4jdp1)" points="2831.25,705.2468,2843.25,717.2468,2831.25,729.2468,2819.25,717.2468,2831.25,705.2468" style="stroke: #A80036; stroke-width: 1.5;"/><rect fill="#FEFECE" filter="url(#f1wderyix4jdp1)" height="36.3441" rx="12.5" ry="12.5" style="stroke: #A80036; stroke-width: 1.5;" width="251" x="3061.375" y="1276.6879"/><text fill="#000000" font-family="sans-serif" font-size="12" lengthAdjust="spacingAndGlyphs" textLength="156" x="3071.375" y="1299.516">Inicia transação atômica via</text><text fill="#000000" font-family="sans-serif" font-size="12" font-weight="bold" lengthAdjust="spacingAndGlyphs" textLength="72" x="3230.375" y="1299.516">UnitOfWork</text><rect fill="#FEFECE" filter="url(#f1wderyix4jdp1)" height="36.3441" rx="12.5" ry="12.5" style="stroke: #A80036; stroke-width: 1.5;" width="539" x="2917.375" y="1333.0321"/><text fill="#000000" font-family="sans-serif" font-size="12" lengthAdjust="spacingAndGlyphs" textLength="519" x="2927.375" y="1355.8601">Verifica novamente a disponibilidade de estoque de todos os itens com trava de concorrência</text><polygon fill="#FEFECE" filter="url(#f1wderyix4jdp1)" points="3086.375,1389.3762,3287.375,1389.3762,3299.375,1401.3762,3287.375,1413.3762,3086.375,1413.3762,3074.375,1401.3762,3086.375,1389.3762" style="stroke: #A80036; stroke-width: 1.5;"/><text fill="#000000" font-family="sans-serif" font-size="11" lengthAdjust="spacingAndGlyphs" textLength="201" x="3086.375" y="1405.6441">Todos os itens têm estoque suficiente?</text><text fill="#000000" font-family="sans-serif" font-size="11" lengthAdjust="spacingAndGlyphs" textLength="19" x="3055.375" y="1398.1532">Sim</text><text fill="#000000" font-family="sans-serif" font-size="11" lengthAdjust="spacingAndGlyphs" textLength="181" x="3299.375" y="1398.1532">Item Esgotado durante o checkout</text><rect fill="#FEFECE" filter="url(#f1wderyix4jdp1)" height="36.3441" rx="12.5" ry="12.5" style="stroke: #A80036; stroke-width: 1.5;" width="439" x="2708.625" y="1433.3762"/><text fill="#000000" font-family="sans-serif" font-size="12" lengthAdjust="spacingAndGlyphs" textLength="145" x="2718.625" y="1456.2043">Cria registro do pedido na</text><text fill="#000000" font-family="sans-serif" font-size="12" font-weight="bold" lengthAdjust="spacingAndGlyphs" textLength="73" x="2866.625" y="1456.2043">tab_pedidos</text><text fill="#000000" font-family="sans-serif" font-size="12" lengthAdjust="spacingAndGlyphs" textLength="195" x="2942.625" y="1456.2043">(Status = 'Pendente' ou 'Aprovado')</text><rect fill="#FEFECE" filter="url(#f1wderyix4jdp1)" height="36.3441" rx="12.5" ry="12.5" style="stroke: #A80036; stroke-width: 1.5;" width="236" x="2810.125" y="1489.7203"/><text fill="#000000" font-family="sans-serif" font-size="12" lengthAdjust="spacingAndGlyphs" textLength="111" x="2820.125" y="1512.5484">Insere cada item na</text><text fill="#000000" font-family="sans-serif" font-size="12" font-weight="bold" lengthAdjust="spacingAndGlyphs" textLength="102" x="2934.125" y="1512.5484">tab_itens_pedido</text><rect fill="#FEFECE" filter="url(#f1wderyix4jdp1)" height="36.3441" rx="12.5" ry="12.5" style="stroke: #A80036; stroke-width: 1.5;" width="317" x="2769.625" y="1546.0644"/><text fill="#000000" font-family="sans-serif" font-size="12" lengthAdjust="spacingAndGlyphs" textLength="221" x="2779.625" y="1568.8925">Decrementa o estoque dos produtos na</text><text fill="#000000" font-family="sans-serif" font-size="12" font-weight="bold" lengthAdjust="spacingAndGlyphs" textLength="73" x="3003.625" y="1568.8925">tab_produto</text><rect fill="#FEFECE" filter="url(#f1wderyix4jdp1)" height="36.3441" rx="12.5" ry="12.5" style="stroke: #A80036; stroke-width: 1.5;" width="173" x="2841.625" y="1602.4085"/><text fill="#000000" font-family="sans-serif" font-size="12" lengthAdjust="spacingAndGlyphs" textLength="153" x="2851.625" y="1625.2366">Limpa o carrinho da sessão</text><rect fill="#FEFECE" filter="url(#f1wderyix4jdp1)" height="36.3441" rx="12.5" ry="12.5" style="stroke: #A80036; stroke-width: 1.5;" width="245" x="2805.625" y="1658.7526"/><text fill="#000000" font-family="sans-serif" font-size="12" lengthAdjust="spacingAndGlyphs" textLength="225" x="2815.625" y="1681.5807">Confirma transação (Commit no MySQL)</text><rect fill="#FBEEE6" height="1823.4952" style="stroke: #FBEEE6; stroke-width: 1.0;" width="288" x="3490.375" y="38.2898"/><line style="stroke: #A80036; stroke-width: 1.5;" x1="481.5" x2="481.5" y1="87.8057" y2="107.8057"/><polygon fill="#A80036" points="477.5,97.8057,481.5,107.8057,485.5,97.8057,481.5,101.8057" style="stroke: #A80036; stroke-width: 1.0;"/><line style="stroke: #A80036; stroke-width: 1.5;" x1="481.5" x2="481.5" y1="256.838" y2="276.838"/><polygon fill="#A80036" points="477.5,266.838,481.5,276.838,485.5,266.838,481.5,270.838" style="stroke: #A80036; stroke-width: 1.0;"/><line style="stroke: #A80036; stroke-width: 1.5;" x1="837.125" x2="837.125" y1="1087.6556" y2="1107.6556"/><polygon fill="#A80036" points="833.125,1097.6556,837.125,1107.6556,841.125,1097.6556,837.125,1101.6556" style="stroke: #A80036; stroke-width: 1.0;"/><line style="stroke: #A80036; stroke-width: 1.5;" x1="837.125" x2="837.125" y1="1143.9997" y2="1163.9997"/><polygon fill="#A80036" points="833.125,1153.9997,837.125,1163.9997,841.125,1153.9997,837.125,1157.9997" style="stroke: #A80036; stroke-width: 1.0;"/><line style="stroke: #A80036; stroke-width: 1.5;" x1="578.375" x2="578.375" y1="1807.785" y2="1827.785"/><polygon fill="#A80036" points="574.375,1817.785,578.375,1827.785,582.375,1817.785,578.375,1821.785" style="stroke: #A80036; stroke-width: 1.0;"/><line style="stroke: #A80036; stroke-width: 1.5;" x1="391" x2="138.5" y1="761.2468" y2="761.2468"/><line style="stroke: #A80036; stroke-width: 1.5;" x1="138.5" x2="138.5" y1="761.2468" y2="793.2468"/><polygon fill="#A80036" points="134.5,783.2468,138.5,793.2468,142.5,783.2468,138.5,787.2468" style="stroke: #A80036; stroke-width: 1.0;"/><line style="stroke: #A80036; stroke-width: 1.5;" x1="572" x2="837.125" y1="761.2468" y2="761.2468"/><line style="stroke: #A80036; stroke-width: 1.5;" x1="837.125" x2="837.125" y1="761.2468" y2="793.2468"/><polygon fill="#A80036" points="833.125,783.2468,837.125,793.2468,841.125,783.2468,837.125,787.2468" style="stroke: #A80036; stroke-width: 1.0;"/><line style="stroke: #A80036; stroke-width: 1.5;" x1="1431.375" x2="1431.375" y1="638.9027" y2="658.9027"/><polygon fill="#A80036" points="1427.375,648.9027,1431.375,658.9027,1435.375,648.9027,1431.375,652.9027" style="stroke: #A80036; stroke-width: 1.0;"/><line style="stroke: #A80036; stroke-width: 1.5;" x1="2637" x2="2637" y1="526.2145" y2="546.2145"/><polygon fill="#A80036" points="2633,536.2145,2637,546.2145,2641,536.2145,2637,540.2145" style="stroke: #A80036; stroke-width: 1.0;"/><line style="stroke: #A80036; stroke-width: 1.5;" x1="2767.25" x2="2637" y1="457.8703" y2="457.8703"/><line style="stroke: #A80036; stroke-width: 1.5;" x1="2637" x2="2637" y1="457.8703" y2="489.8703"/><polygon fill="#A80036" points="2633,479.8703,2637,489.8703,2641,479.8703,2637,483.8703" style="stroke: #A80036; stroke-width: 1.0;"/><line style="stroke: #A80036; stroke-width: 1.5;" x1="2831.25" x2="2831.25" y1="425.8703" y2="445.8703"/><polygon fill="#A80036" points="2827.25,435.8703,2831.25,445.8703,2835.25,435.8703,2831.25,439.8703" style="stroke: #A80036; stroke-width: 1.0;"/><line style="stroke: #A80036; stroke-width: 1.5;" x1="3186.875" x2="3186.875" y1="1313.0321" y2="1333.0321"/><polygon fill="#A80036" points="3182.875,1323.0321,3186.875,1333.0321,3190.875,1323.0321,3186.875,1327.0321" style="stroke: #A80036; stroke-width: 1.0;"/><line style="stroke: #A80036; stroke-width: 1.5;" x1="2928.125" x2="2928.125" y1="1469.7203" y2="1489.7203"/><polygon fill="#A80036" points="2924.125,1479.7203,2928.125,1489.7203,2932.125,1479.7203,2928.125,1483.7203" style="stroke: #A80036; stroke-width: 1.0;"/><line style="stroke: #A80036; stroke-width: 1.5;" x1="2928.125" x2="2928.125" y1="1526.0644" y2="1546.0644"/><polygon fill="#A80036" points="2924.125,1536.0644,2928.125,1546.0644,2932.125,1536.0644,2928.125,1540.0644" style="stroke: #A80036; stroke-width: 1.0;"/><line style="stroke: #A80036; stroke-width: 1.5;" x1="2928.125" x2="2928.125" y1="1582.4085" y2="1602.4085"/><polygon fill="#A80036" points="2924.125,1592.4085,2928.125,1602.4085,2932.125,1592.4085,2928.125,1596.4085" style="stroke: #A80036; stroke-width: 1.0;"/><line style="stroke: #A80036; stroke-width: 1.5;" x1="2928.125" x2="2928.125" y1="1638.7526" y2="1658.7526"/><polygon fill="#A80036" points="2924.125,1648.7526,2928.125,1658.7526,2932.125,1648.7526,2928.125,1652.7526" style="stroke: #A80036; stroke-width: 1.0;"/><line style="stroke: #A80036; stroke-width: 1.5;" x1="3074.375" x2="2928.125" y1="1401.3762" y2="1401.3762"/><line style="stroke: #A80036; stroke-width: 1.5;" x1="2928.125" x2="2928.125" y1="1401.3762" y2="1433.3762"/><polygon fill="#A80036" points="2924.125,1423.3762,2928.125,1433.3762,2932.125,1423.3762,2928.125,1427.3762" style="stroke: #A80036; stroke-width: 1.0;"/><line style="stroke: #A80036; stroke-width: 1.5;" x1="3186.875" x2="3186.875" y1="1369.3762" y2="1389.3762"/><polygon fill="#A80036" points="3182.875,1379.3762,3186.875,1389.3762,3190.875,1379.3762,3186.875,1383.3762" style="stroke: #A80036; stroke-width: 1.0;"/><line style="stroke: #A80036; stroke-width: 1.5;" x1="481.5" x2="481.5" y1="144.1498" y2="149.1498"/><line style="stroke: #A80036; stroke-width: 1.5;" x1="481.5" x2="1625.625" y1="149.1498" y2="149.1498"/><line style="stroke: #A80036; stroke-width: 1.5;" x1="1625.625" x2="1625.625" y1="149.1498" y2="164.1498"/><polygon fill="#A80036" points="1621.625,154.1498,1625.625,164.1498,1629.625,154.1498,1625.625,158.1498" style="stroke: #A80036; stroke-width: 1.0;"/><line style="stroke: #A80036; stroke-width: 1.5;" x1="1625.625" x2="1625.625" y1="200.4939" y2="205.4939"/><line style="stroke: #A80036; stroke-width: 1.5;" x1="1625.625" x2="481.5" y1="205.4939" y2="205.4939"/><line style="stroke: #A80036; stroke-width: 1.5;" x1="481.5" x2="481.5" y1="205.4939" y2="220.4939"/><polygon fill="#A80036" points="477.5,210.4939,481.5,220.4939,485.5,210.4939,481.5,214.4939" style="stroke: #A80036; stroke-width: 1.0;"/><line style="stroke: #A80036; stroke-width: 1.5;" x1="481.5" x2="481.5" y1="313.1821" y2="318.1821"/><line style="stroke: #A80036; stroke-width: 1.5;" x1="481.5" x2="1625.625" y1="318.1821" y2="318.1821"/><line style="stroke: #A80036; stroke-width: 1.5;" x1="1625.625" x2="1625.625" y1="318.1821" y2="333.1821"/><polygon fill="#A80036" points="1621.625,323.1821,1625.625,333.1821,1629.625,323.1821,1625.625,327.1821" style="stroke: #A80036; stroke-width: 1.0;"/><line style="stroke: #A80036; stroke-width: 1.5;" x1="1625.625" x2="1625.625" y1="369.5262" y2="374.5262"/><line style="stroke: #A80036; stroke-width: 1.5;" x1="1625.625" x2="2831.25" y1="374.5262" y2="374.5262"/><line style="stroke: #A80036; stroke-width: 1.5;" x1="2831.25" x2="2831.25" y1="374.5262" y2="389.5262"/><polygon fill="#A80036" points="2827.25,379.5262,2831.25,389.5262,2835.25,379.5262,2831.25,383.5262" style="stroke: #A80036; stroke-width: 1.0;"/><line style="stroke: #A80036; stroke-width: 1.5;" x1="2637" x2="2637" y1="582.5586" y2="587.5586"/><line style="stroke: #A80036; stroke-width: 1.5;" x1="2637" x2="1431.375" y1="587.5586" y2="587.5586"/><line style="stroke: #A80036; stroke-width: 1.5;" x1="1431.375" x2="1431.375" y1="587.5586" y2="602.5586"/><polygon fill="#A80036" points="1427.375,592.5586,1431.375,602.5586,1435.375,592.5586,1431.375,596.5586" style="stroke: #A80036; stroke-width: 1.0;"/><line style="stroke: #A80036; stroke-width: 1.5;" x1="2895.25" x2="2907.25" y1="457.8703" y2="457.8703"/><line style="stroke: #A80036; stroke-width: 1.5;" x1="2907.25" x2="2907.25" y1="457.8703" y2="475.8703"/><line style="stroke: #A80036; stroke-width: 1.5;" x1="2907.25" x2="1819.875" y1="475.8703" y2="475.8703"/><line style="stroke: #A80036; stroke-width: 1.5;" x1="1819.875" x2="1819.875" y1="475.8703" y2="489.8703"/><polygon fill="#A80036" points="1815.875,479.8703,1819.875,489.8703,1823.875,479.8703,1819.875,483.8703" style="stroke: #A80036; stroke-width: 1.0;"/><line style="stroke: #A80036; stroke-width: 1.5;" x1="1431.375" x2="1431.375" y1="695.2468" y2="717.2468"/><line style="stroke: #A80036; stroke-width: 1.5;" x1="1431.375" x2="2819.25" y1="717.2468" y2="717.2468"/><polygon fill="#A80036" points="2809.25,713.2468,2819.25,717.2468,2809.25,721.2468,2813.25,717.2468" style="stroke: #A80036; stroke-width: 1.0;"/><line style="stroke: #A80036; stroke-width: 1.5;" x1="1819.875" x2="1819.875" y1="526.2145" y2="699.2468"/><line style="stroke: #A80036; stroke-width: 1.5;" x1="1819.875" x2="2861.25" y1="699.2468" y2="699.2468"/><line style="stroke: #A80036; stroke-width: 1.5;" x1="2861.25" x2="2861.25" y1="699.2468" y2="717.2468"/><line style="stroke: #A80036; stroke-width: 1.5;" x1="2861.25" x2="2843.25" y1="717.2468" y2="717.2468"/><polygon fill="#A80036" points="2853.25,713.2468,2843.25,717.2468,2853.25,721.2468,2849.25,717.2468" style="stroke: #A80036; stroke-width: 1.0;"/><line style="stroke: #A80036; stroke-width: 1.5;" x1="837.125" x2="837.125" y1="829.5909" y2="834.5909"/><line style="stroke: #A80036; stroke-width: 1.5;" x1="837.125" x2="1981.25" y1="834.5909" y2="834.5909"/><line style="stroke: #A80036; stroke-width: 1.5;" x1="1981.25" x2="1981.25" y1="834.5909" y2="849.5909"/><polygon fill="#A80036" points="1977.25,839.5909,1981.25,849.5909,1985.25,839.5909,1981.25,843.5909" style="stroke: #A80036; stroke-width: 1.0;"/><line style="stroke: #A80036; stroke-width: 1.5;" x1="1981.25" x2="1981.25" y1="885.935" y2="890.935"/><line style="stroke: #A80036; stroke-width: 1.5;" x1="1981.25" x2="837.125" y1="890.935" y2="890.935"/><line style="stroke: #A80036; stroke-width: 1.5;" x1="837.125" x2="837.125" y1="890.935" y2="905.935"/><polygon fill="#A80036" points="833.125,895.935,837.125,905.935,841.125,895.935,837.125,899.935" style="stroke: #A80036; stroke-width: 1.0;"/><line style="stroke: #A80036; stroke-width: 1.5;" x1="837.125" x2="837.125" y1="942.2791" y2="947.2791"/><line style="stroke: #A80036; stroke-width: 1.5;" x1="837.125" x2="1981.25" y1="947.2791" y2="947.2791"/><line style="stroke: #A80036; stroke-width: 1.5;" x1="1981.25" x2="1981.25" y1="947.2791" y2="962.2791"/><polygon fill="#A80036" points="1977.25,952.2791,1981.25,962.2791,1985.25,952.2791,1981.25,956.2791" style="stroke: #A80036; stroke-width: 1.0;"/><line style="stroke: #A80036; stroke-width: 1.5;" x1="1981.25" x2="1981.25" y1="998.6233" y2="1003.6233"/><line style="stroke: #A80036; stroke-width: 1.5;" x1="1981.25" x2="837.125" y1="1003.6233" y2="1003.6233"/><line style="stroke: #A80036; stroke-width: 1.5;" x1="837.125" x2="837.125" y1="1003.6233" y2="1018.6233"/><polygon fill="#A80036" points="833.125,1008.6233,837.125,1018.6233,841.125,1008.6233,837.125,1012.6233" style="stroke: #A80036; stroke-width: 1.0;"/><line style="stroke: #A80036; stroke-width: 1.5;" x1="837.125" x2="837.125" y1="1200.3438" y2="1205.3438"/><line style="stroke: #A80036; stroke-width: 1.5;" x1="837.125" x2="1981.25" y1="1205.3438" y2="1205.3438"/><line style="stroke: #A80036; stroke-width: 1.5;" x1="1981.25" x2="1981.25" y1="1205.3438" y2="1220.3438"/><polygon fill="#A80036" points="1977.25,1210.3438,1981.25,1220.3438,1985.25,1210.3438,1981.25,1214.3438" style="stroke: #A80036; stroke-width: 1.0;"/><line style="stroke: #A80036; stroke-width: 1.5;" x1="1981.25" x2="1981.25" y1="1256.6879" y2="1261.6879"/><line style="stroke: #A80036; stroke-width: 1.5;" x1="1981.25" x2="3186.875" y1="1261.6879" y2="1261.6879"/><line style="stroke: #A80036; stroke-width: 1.5;" x1="3186.875" x2="3186.875" y1="1261.6879" y2="1276.6879"/><polygon fill="#A80036" points="3182.875,1266.6879,3186.875,1276.6879,3190.875,1266.6879,3186.875,1270.6879" style="stroke: #A80036; stroke-width: 1.0;"/><line style="stroke: #A80036; stroke-width: 1.5;" x1="2928.125" x2="2928.125" y1="1695.0967" y2="1700.0967"/><line style="stroke: #A80036; stroke-width: 1.5;" x1="2928.125" x2="1722.5" y1="1700.0967" y2="1700.0967"/><line style="stroke: #A80036; stroke-width: 1.5;" x1="1722.5" x2="1722.5" y1="1700.0967" y2="1715.0967"/><polygon fill="#A80036" points="1718.5,1705.0967,1722.5,1715.0967,1726.5,1705.0967,1722.5,1709.0967" style="stroke: #A80036; stroke-width: 1.0;"/><line style="stroke: #A80036; stroke-width: 1.5;" x1="1722.5" x2="1722.5" y1="1751.4409" y2="1756.4409"/><line style="stroke: #A80036; stroke-width: 1.5;" x1="1722.5" x2="578.375" y1="1756.4409" y2="1756.4409"/><line style="stroke: #A80036; stroke-width: 1.5;" x1="578.375" x2="578.375" y1="1756.4409" y2="1771.4409"/><polygon fill="#A80036" points="574.375,1761.4409,578.375,1771.4409,582.375,1761.4409,578.375,1765.4409" style="stroke: #A80036; stroke-width: 1.0;"/><line style="stroke: #A80036; stroke-width: 1.5;" x1="1095.875" x2="1095.875" y1="1469.7203" y2="1474.7203"/><line style="stroke: #A80036; stroke-width: 1.5;" x1="1095.875" x2="2240" y1="1474.7203" y2="1474.7203"/><line style="stroke: #A80036; stroke-width: 1.5;" x1="2240" x2="2240" y1="1474.7203" y2="1489.7203"/><polygon fill="#A80036" points="2236,1479.7203,2240,1489.7203,2244,1479.7203,2240,1483.7203" style="stroke: #A80036; stroke-width: 1.0;"/><line style="stroke: #A80036; stroke-width: 1.5;" x1="2240" x2="2240" y1="1526.0644" y2="1531.0644"/><line style="stroke: #A80036; stroke-width: 1.5;" x1="2240" x2="1095.875" y1="1531.0644" y2="1531.0644"/><line style="stroke: #A80036; stroke-width: 1.5;" x1="1095.875" x2="1095.875" y1="1531.0644" y2="1546.0644"/><polygon fill="#A80036" points="1091.875,1536.0644,1095.875,1546.0644,1099.875,1536.0644,1095.875,1540.0644" style="stroke: #A80036; stroke-width: 1.0;"/><line style="stroke: #A80036; stroke-width: 1.5;" x1="3299.375" x2="3311.375" y1="1401.3762" y2="1401.3762"/><line style="stroke: #A80036; stroke-width: 1.5;" x1="3311.375" x2="3311.375" y1="1401.3762" y2="1419.3762"/><line style="stroke: #A80036; stroke-width: 1.5;" x1="3311.375" x2="1095.875" y1="1419.3762" y2="1419.3762"/><line style="stroke: #A80036; stroke-width: 1.5;" x1="1095.875" x2="1095.875" y1="1419.3762" y2="1433.3762"/><polygon fill="#A80036" points="1091.875,1423.3762,1095.875,1433.3762,1099.875,1423.3762,1095.875,1427.3762" style="stroke: #A80036; stroke-width: 1.0;"/><line style="stroke: #A80036; stroke-width: 1.5;" x1="2831.25" x2="2831.25" y1="729.2468" y2="734.2468"/><line style="stroke: #A80036; stroke-width: 1.5;" x1="2831.25" x2="481.5" y1="734.2468" y2="734.2468"/><line style="stroke: #A80036; stroke-width: 1.5;" x1="481.5" x2="481.5" y1="734.2468" y2="749.2468"/><polygon fill="#A80036" points="477.5,739.2468,481.5,749.2468,485.5,739.2468,481.5,743.2468" style="stroke: #A80036; stroke-width: 1.0;"/><text fill="#000000" font-family="sans-serif" font-size="18" lengthAdjust="spacingAndGlyphs" textLength="59" x="586.625" y="57.5317">Cliente</text><text fill="#000000" font-family="sans-serif" font-size="18" lengthAdjust="spacingAndGlyphs" textLength="212" x="1732.6875" y="57.5317">Frontend (Thymeleaf / JS)</text><text fill="#000000" font-family="sans-serif" font-size="18" lengthAdjust="spacingAndGlyphs" textLength="370" x="2781.4375" y="57.5317">Backend (Spring Boot / Carrinho &amp; Pedidos)</text><text fill="#000000" font-family="sans-serif" font-size="18" lengthAdjust="spacingAndGlyphs" textLength="268" x="3500.375" y="57.5317">Banco de Dados (MySQL / gwj5)</text><line style="stroke: #000000; stroke-width: 2.0;" x1="10" x2="10" y1="38.2898" y2="1861.785"/><line style="stroke: #000000; stroke-width: 2.0;" x1="1234.875" x2="1234.875" y1="38.2898" y2="1861.785"/><line style="stroke: #000000; stroke-width: 2.0;" x1="2442.5" x2="2442.5" y1="38.2898" y2="1861.785"/><line style="stroke: #000000; stroke-width: 2.0;" x1="3490.375" x2="3490.375" y1="38.2898" y2="1861.785"/><line style="stroke: #000000; stroke-width: 2.0;" x1="3778.375" x2="3778.375" y1="38.2898" y2="1861.785"/><!--MD5=[be9a1d302fa7b5c78dc0ff579d5e042e]
@startuml Diagrama de Atividades - Compra de Produtos na Loja

skinparam theme cerulean
skinparam Handwritten false
skinparam Monochrome false
skinparam Shadowing true
skinparam defaultTextAlignment center

title Diagrama de Atividades - Fluxo de Compra de Produtos Cosméticos e Kits (E-Commerce)

|#E8F4F8|Cliente|
|#FFF3E0|Frontend (Thymeleaf / JS)|
|#E8F8F5|Backend (Spring Boot / Carrinho & Pedidos)|
|#FBEEE6|Banco de Dados (MySQL / gwj5)|

|Cliente|
start
:Acessa a loja online da barbearia (/shop);

|Frontend (Thymeleaf / JS)|
:Carrega catálogo de produtos ativos com fotos, preços e estoque disponível (**tab_produto**);

|Cliente|
:Navega pelo catálogo e visualiza detalhes do produto/kit (/single-product);
:Clica em "Adicionar ao Carrinho";

|Frontend (Thymeleaf / JS)|
:Envia requisição assíncrona **POST /carrinho/adicionar**;

|Backend (Spring Boot / Carrinho & Pedidos)|
:Valida se o produto existe e se quantidade solicitada <= estoque atual (**tab_produto**);

if (Estoque disponível?) then (Sim)
    :Adiciona item à sessão do carrinho (**Carrinho** / **CarrinhoItem**);
    :Recalcula subtotal e total do carrinho;
    
    |Frontend (Thymeleaf / JS)|
    :Atualiza badge do carrinho no cabeçalho com a nova contagem;
    :Exibe notificação flutuante: "Produto adicionado ao carrinho!";
else (Não / Sem Estoque)
    |Frontend (Thymeleaf / JS)|
    :Exibe alerta: "Desculpe, quantidade indisponível em estoque.";
endif

|Cliente|
if (Deseja continuar comprando?) then (Sim)
    :Retorna à vitrine e escolhe outros itens;
    detach
else (Não / Fechar Compra)
    :Acessa a página do carrinho (/carrinho);
    
    |Frontend (Thymeleaf / JS)|
    :Exibe itens, quantidades, preços unitários e subtotal;
    
    |Cliente|
    :Revisa o pedido e clica em "Finalizar Compra";
    
    |Frontend (Thymeleaf / JS)|
    :Redireciona para o checkout (/carrinho-checkout);
    
    |Cliente|
    :Preenche dados de entrega/retirada e contato:
    - Nome, CPF, Telefone
    - Endereço de entrega (ou opção Retirar na Barbearia);
    :Seleciona forma de pagamento (PIX / Cartão / Dinheiro na retirada);
    :Clica em "Confirmar Pedido";
    
    |Frontend (Thymeleaf / JS)|
    :Envia formulário de checkout para o backend;
    
    |Backend (Spring Boot / Carrinho & Pedidos)|
    :Inicia transação atômica via **UnitOfWork**;
    :Verifica novamente a disponibilidade de estoque de todos os itens com trava de concorrência;
    
    if (Todos os itens têm estoque suficiente?) then (Sim)
        :Cria registro do pedido na **tab_pedidos** (Status = 'Pendente' ou 'Aprovado');
        :Insere cada item na **tab_itens_pedido**;
        :Decrementa o estoque dos produtos na **tab_produto**;
        :Limpa o carrinho da sessão;
        :Confirma transação (Commit no MySQL);
        
        |Frontend (Thymeleaf / JS)|
        :Redireciona para tela de confirmação (/compra-confirmada);
        
        |Cliente|
        :Visualiza número do pedido, itens comprados, instruções de retirada/rastreio e QR Code PIX (se aplicável);
        stop
    else (Item Esgotado durante o checkout)
        :Desfaz transação (Rollback);
        
        |Frontend (Thymeleaf / JS)|
        :Exibe aviso de produto esgotado e solicita atualização do carrinho;
        
        |Cliente|
        :Ajusta itens do carrinho e tenta novamente;
        detach
    endif
endif

@enduml

PlantUML version 1.2020.02(Sun Mar 01 07:22:07 GMT-03:00 2020)
(GPL source distribution)
Java Runtime: OpenJDK Runtime Environment
JVM: OpenJDK 64-Bit Server VM
Java Version: 25.0.3+9-2-deb13u1-Debian
Operating System: Linux
Default Encoding: UTF-8
Language: pt
Country: BR
--></g></svg>