<?xml version="1.0" encoding="utf-8"?>
<svg viewBox="167.1999969482422 560.5 245.3000030517578 248.89996337890625" width="245.3000030517578" height="248.89996337890625" xmlns="http://www.w3.org/2000/svg"><g transform="matrix(1, 0, 0, 1, 0, 0)">
		<path class="st0" d="M289.9,774.7c-0.9,0-1.8-0.6-2.1-1.4c-2.3-5.4-14.1-9.1-25.6-12.6c-9.4-2.9-19.2-6-25.7-10.4&#10;&#9;&#9;&#9;c-10.1-6.9-16.6-18.4-18.3-32.4c-1.5-12.2,0.8-25.1,6.1-34.6c7.3-12.8,8.7-26.1,4.1-39.5c-3.4-10-8.9-16.2-9-16.3&#10;&#9;&#9;&#9;c-0.7-0.8-0.8-2-0.1-2.9l10.3-13.8c0.5-0.6,1.2-1,2-0.9c0.8,0.1,1.5,0.5,1.8,1.2c3.5,6.6,11.7,10.8,21,10.8&#10;&#9;&#9;&#9;c10.4,0,19.4-5.4,21.9-13.1c0.3-0.9,1.2-1.6,2.2-1.6h22.5c1,0,1.9,0.6,2.2,1.6c2.6,7.7,11.6,13.1,21.9,13.1&#10;&#9;&#9;&#9;c9.2,0,17.5-4.2,21-10.8c0.4-0.7,1.1-1.1,1.8-1.2c0.8-0.1,1.5,0.3,2,0.9l10.3,13.8c0.7,0.9,0.6,2.1-0.1,2.9&#10;&#9;&#9;&#9;c-0.1,0.1-5.7,6.4-9,16.4c-4.5,13.3-3,26.5,4.2,39.3c5.4,9.5,7.7,22.4,6.1,34.6c-1.7,14-8.2,25.5-18.3,32.4&#10;&#9;&#9;&#9;c-6.5,4.4-16.2,7.5-25.7,10.4c-11.5,3.6-23.3,7.2-25.6,12.6C291.6,774.1,290.8,774.7,289.9,774.7z M224.1,625.9&#10;&#9;&#9;&#9;c2,2.6,6,8.3,8.7,16.4c3.4,10.1,5.4,25.7-4.5,43.2c-9.1,16.1-9.5,47.1,10.8,60.9c5.9,4,15.3,7,24.4,9.8c11,3.4,21.5,6.7,26.4,12&#10;&#9;&#9;&#9;c4.9-5.3,15.4-8.6,26.4-12c9.1-2.8,18.5-5.8,24.4-9.8c20.2-13.8,19.9-44.8,10.8-60.9l0,0c-9.9-17.5-7.9-33.1-4.5-43.2&#10;&#9;&#9;&#9;c2.7-8.1,6.7-13.8,8.7-16.4l-7.3-9.7c-4.9,6.4-13.6,10.3-23.1,10.3c-11.6,0-21.9-5.9-25.7-14.6h-19.3&#10;&#9;&#9;&#9;c-3.8,8.7-14.1,14.6-25.7,14.6c-9.5,0-18.2-4-23.1-10.3L224.1,625.9z" style="fill: rgb(204, 204, 204); opacity: 1;"/>
		<path class="st0" d="M289.9,764.8l-0.6-0.5c-5.7-4.4-15.1-7.4-25-10.4c-8.9-2.8-18.2-5.6-23.8-9.5c-8.4-5.7-13.8-15.5-15.3-27.4&#10;&#9;&#9;&#9;c-1.3-10.6,0.7-22.2,5.3-30.2c10.4-18.3,8.3-34.7,4.7-45.2c-2.3-6.6-5.4-11.8-7.6-15l-0.4-0.6l4.3-5.8l0.8,0.7&#10;&#9;&#9;&#9;c5.6,5.2,13.7,8.1,22.2,8.1c11.6,0,22.1-5.6,27-14.1l0.3-0.5H298l0.3,0.5c4.8,8.6,15.4,14.1,27,14.1c8.5,0,16.6-3,22.2-8.1&#10;&#9;&#9;&#9;l0.8-0.7l4.3,5.8l-0.4,0.6c-2.2,3.2-5.3,8.4-7.6,15c-3.6,10.6-5.7,27,4.7,45.2c4.6,8.1,6.6,19.6,5.3,30.2&#10;&#9;&#9;&#9;c-1.5,12-6.9,21.7-15.3,27.4c-5.6,3.8-14.8,6.7-23.8,9.5c-9.9,3.1-19.3,6-25,10.4L289.9,764.8z M229.6,626&#10;&#9;&#9;&#9;c2.2,3.3,5.2,8.4,7.4,14.9c3.7,10.9,5.9,27.9-4.8,46.8c-4.4,7.7-6.3,18.9-5,29.1c1.4,11.4,6.5,20.7,14.5,26.1&#10;&#9;&#9;&#9;c5.3,3.7,14.4,6.5,23.3,9.2c10.2,3.2,19.1,5.9,25.1,10.3c6-4.4,14.8-7.2,25.1-10.3c8.8-2.7,17.9-5.6,23.3-9.2&#10;&#9;&#9;&#9;c7.9-5.4,13-14.7,14.5-26.1c1.3-10.2-0.7-21.3-5-29.1c-10.7-18.9-8.5-35.9-4.8-46.8c2.2-6.5,5.2-11.6,7.4-14.9l-2.3-3&#10;&#9;&#9;&#9;c-5.9,5.1-14.1,7.9-22.7,7.9c-12,0-23.1-5.7-28.4-14.6h-14c-5.3,8.9-16.4,14.6-28.4,14.6c-8.6,0-16.8-2.9-22.7-7.9L229.6,626z" style="fill: rgb(204, 204, 204); opacity: 1;"/>
		<path class="st0" d="M346.1,682.8c-7.9-16.8-5.8-31.7-2.5-41.6c2.3-6.7,5.4-12,7.7-15.2l-3.3-4.4c-5.7,5.2-14,8.4-22.8,8.4&#10;&#9;&#9;&#9;c-12.1,0-22.9-5.8-27.8-14.6h-7.5v67.4H346.1z" style="fill: rgb(204, 204, 204); opacity: 1;"/>
		<path class="st0" d="M233.6,682.8c-0.7,1.5-1.4,3-2.3,4.5c-4.5,7.9-6.4,19.3-5.2,29.7c1.4,11.7,6.7,21.2,14.9,26.7&#10;&#9;&#9;&#9;c5.5,3.7,14.6,6.6,23.5,9.3c10.2,3.2,19.5,6.1,25.3,10.6v-80.8H233.6z" style="fill: rgb(204, 204, 204); opacity: 1;"/>
		<g>
			<path class="st0" d="M182.8,786.7c1.9,0.7,5.8,2.3,10.4,4.7c0.2,0.1,0.4,0.3,0.4,0.6c0.1,0.2,0,0.5-0.1,0.7&#10;&#9;&#9;&#9;&#9;c0,0.1-4.2,6.3-5.6,12.3c2.7-2,8.3-4.7,19.2-4.5c8.6,0.2,14.4,3,19.6,5.4c3.9,1.9,7.3,3.5,11.1,3.5c2.1,0,3.8-0.5,4.7-1.5&#10;&#9;&#9;&#9;&#9;c0.5-0.5,0.8-1.1,0.7-1.8l0,0c0-0.8-0.5-1.6-1.3-2.1c-1.8-1.3-4.7-1.4-8.2-0.4c-3.4,1-6.4,0.8-8.4-0.6c-1.2-0.9-2-2.1-2.2-3.5&#10;&#9;&#9;&#9;&#9;c-1-4.5-0.9-7.9-0.8-10.4c0-0.7,0.1-1.3,0.1-1.8c0-0.7-0.2-1.5-0.5-2.5c-4.8-2-10.4-4.1-18.3-4.3&#10;&#9;&#9;&#9;&#9;C191.4,780.4,185,784.8,182.8,786.7z" style="fill: rgb(204, 204, 204); opacity: 1;"/>
			<path class="st0" d="M225.8,797.1c-0.6,0.6-0.8,1.4-0.8,2.2c0.1,0.9,0.6,1.7,1.4,2.3c0.9,0.6,3,1.5,7,0.4&#10;&#9;&#9;&#9;&#9;c5.2-1.5,8.1-0.3,9.5,0.6c-0.5-2.3-1.3-4.2-1.9-5.8c0-0.1-0.1-0.1-0.1-0.2c-3.3-0.6-6.8-1-10.8-1&#10;&#9;&#9;&#9;&#9;C228.2,795.6,226.7,796.1,225.8,797.1z" style="fill: rgb(204, 204, 204); opacity: 1;"/>
			<path class="st0" d="M357.7,784.8c-0.3,1-0.5,1.8-0.5,2.5c0,0.6,0,1.2,0.1,1.8c0.1,2.5,0.2,5.8-0.8,10.4&#10;&#9;&#9;&#9;&#9;c-0.1,1.4-0.9,2.6-2.2,3.5c-2,1.4-5,1.6-8.4,0.6c-3.4-1-6.4-0.8-8.2,0.4c-0.8,0.6-1.3,1.3-1.3,2.1l0,0c0,0.6,0.2,1.3,0.7,1.8&#10;&#9;&#9;&#9;&#9;c0.9,1,2.6,1.4,4.7,1.5c3.8,0,7.2-1.7,11.1-3.5c5.1-2.5,10.9-5.3,19.6-5.4c10.9-0.2,16.6,2.5,19.2,4.5&#10;&#9;&#9;&#9;&#9;c-1.4-5.9-5.5-12.2-5.6-12.3c-0.1-0.2-0.2-0.5-0.1-0.7c0.1-0.2,0.2-0.4,0.4-0.6c4.6-2.4,8.5-4,10.4-4.7c-2.2-2-8.7-6.4-20.9-6.1&#10;&#9;&#9;&#9;&#9;C368,780.8,362.5,782.9,357.7,784.8z" style="fill: rgb(204, 204, 204); opacity: 1;"/>
			<path class="st0" d="M346.4,802c1.4,0.4,2.5,0.5,3.5,0.5c1.8,0,2.9-0.5,3.5-0.9c0.8-0.6,1.4-1.4,1.4-2.3c0.1-0.8-0.2-1.6-0.8-2.2&#10;&#9;&#9;&#9;&#9;c-0.9-1-2.4-1.5-4.3-1.5c-4,0-7.5,0.4-10.8,1c0,0.1-0.1,0.1-0.1,0.2c-0.6,1.5-1.4,3.5-1.9,5.8C338.3,801.7,341.2,800.5,346.4,802&#10;&#9;&#9;&#9;&#9;z" style="fill: rgb(204, 204, 204); opacity: 1;"/>
			<path class="st0" d="M224.3,787.3c0,0.6,0,1.2-0.1,1.9c-0.1,1.8-0.2,4,0.2,6.8c0,0,0,0,0.1-0.1c1.2-1.3,3.2-2.1,5.6-2.1&#10;&#9;&#9;&#9;&#9;c7.3,0,12.7,1.2,19,2.7c8.8,2.1,19.7,4.7,40.8,4.7c21.1,0,32.1-2.6,40.8-4.7c6.2-1.5,11.6-2.8,19-2.7c2.4,0,4.4,0.8,5.6,2.1&#10;&#9;&#9;&#9;&#9;c0,0,0,0,0.1,0.1c0.3-2.8,0.2-4.9,0.2-6.8c0-0.7-0.1-1.3-0.1-1.9c0-1.2,0.5-2.7,1-4.4c0.8-2.4,1.7-5.4,1.7-8.8&#10;&#9;&#9;&#9;&#9;c0-1.9-1.3-4.2-5.1-4.3c-7.2,0-13,1.1-19.9,2.5c-9.8,2-22,4.4-43.3,4.4c-21.3,0-33.5-2.4-43.3-4.4c-6.8-1.4-12.8-2.5-19.9-2.5&#10;&#9;&#9;&#9;&#9;c-3.8,0-5.1,2.3-5.1,4.3c0,3.4,0.9,6.4,1.7,8.8C223.8,784.6,224.3,786.1,224.3,787.3z" style="fill: rgb(204, 204, 204); opacity: 1;"/>
		</g>
		<g>
			<path class="st0" d="M403.7,677.6c-0.4,0.5-0.9,1.1-1.4,1.6c-0.9,1.1-1.9,2.2-2.6,3c-0.7,0.8-1.2,1.3-1.2,1.3&#10;&#9;&#9;&#9;&#9;c1.3,0.2,3.1,0.3,5,0c0.9-0.1,1.9-0.4,2.8-0.7c0.9-0.4,1.8-0.9,2.5-1.6c1.1-1,1.9-2.3,2.5-3.7c0.5-1.4,0.9-2.9,1-4.2&#10;&#9;&#9;&#9;&#9;c0.1-1.3,0.2-2.6,0.1-3.4c0-0.4,0-0.8-0.1-1c0-0.2,0-0.4,0-0.4s-2-0.3-4.4-0.2c-2.5,0.2-5.5,0.9-7.6,3c-1.4,1.3-2.2,3-2.7,4.7&#10;&#9;&#9;&#9;&#9;c0.1-1.8,0.2-3.6,0.2-5.3c0.1-1.7,0.1-3.4,0.1-5.1c0.8-0.6,2.4-1.8,3.9-3.1c1.1-0.9,2.2-1.8,3-2.5c0.8-0.7,1.3-1.2,1.3-1.2&#10;&#9;&#9;&#9;&#9;s-0.4,0.6-1,1.5c-0.6,0.9-1.4,2.1-2.3,3.2c-0.8,1.2-1.7,2.3-2.3,3.2c-0.6,0.8-1.1,1.4-1.1,1.4c2.6,0.1,7.2-0.1,10-3.2&#10;&#9;&#9;&#9;&#9;c2-2.2,2.7-5.5,2.8-8.2c0.1-1.4-0.1-2.6-0.2-3.4c-0.1-0.9-0.2-1.4-0.2-1.4s-2-0.2-4.4,0.2c-2.5,0.4-5.4,1.4-7.3,3.6&#10;&#9;&#9;&#9;&#9;c-0.7,0.8-1.2,1.6-1.6,2.5c-0.3,0.8-0.6,1.6-0.8,2.4c0-0.7,0-1.4-0.1-2.1c-0.1-3.1-0.3-6.1-0.6-9c0.7-0.6,1.9-1.8,3.1-2.9&#10;&#9;&#9;&#9;&#9;c0.9-0.9,1.8-1.8,2.5-2.4c0.7-0.7,1.1-1.1,1.1-1.1s-0.3,0.6-0.8,1.4c-0.5,0.8-1.1,1.9-1.8,3c-0.6,1.1-1.3,2.2-1.8,3&#10;&#9;&#9;&#9;&#9;c-0.5,0.8-0.8,1.3-0.8,1.3c2.3-0.1,6.3-0.7,8.6-3.6c1.6-2.1,2-5,1.8-7.4c0-1.2-0.2-2.2-0.4-3c-0.2-0.8-0.3-1.2-0.3-1.2&#10;&#9;&#9;&#9;&#9;s-1.8,0-3.9,0.5c-2.1,0.5-4.7,1.6-6.2,3.7c-0.9,1.2-1.4,2.6-1.6,4c-0.5-4.3-1.1-8-1.6-11c0.6-0.6,1.5-1.7,2.4-2.7&#10;&#9;&#9;&#9;&#9;c0.7-0.9,1.5-1.7,2-2.4c0.5-0.7,0.9-1.1,0.9-1.1s-0.9,2.1-1.9,4.1c-0.5,1-1,2-1.4,2.8c-0.4,0.8-0.6,1.3-0.6,1.3&#10;&#9;&#9;&#9;&#9;c1-0.1,2.4-0.4,3.8-1c1.4-0.6,2.7-1.5,3.6-2.9c0.6-1,1-2.2,1.1-3.3c0.1-0.6,0.1-1.2,0.1-1.8c0-0.6-0.1-1.1-0.1-1.7&#10;&#9;&#9;&#9;&#9;c-0.1-1.1-0.4-2-0.6-2.6c-0.2-0.7-0.4-1.1-0.4-1.1s-1.6,0.1-3.4,0.8c-1.9,0.6-4,1.8-5.2,3.8c-0.6,1-0.9,2.1-1.1,3.2&#10;&#9;&#9;&#9;&#9;c0-0.1,0-0.2-0.1-0.3c-0.2-0.7-0.3-1.4-0.4-1.9c-0.1-0.5-0.2-0.9-0.3-1.2c-0.1-0.3-0.1-0.4-0.1-0.4c-0.2-0.7-0.9-1.2-1.6-1&#10;&#9;&#9;&#9;&#9;c-0.7,0.2-1.1,0.9-1,1.6c0,0,0,0.1,0.1,0.4c0.1,0.3,0.2,0.6,0.3,1.2c0.1,0.5,0.2,1.1,0.4,1.9c0,0.1,0,0.2,0.1,0.3&#10;&#9;&#9;&#9;&#9;c-0.6-0.9-1.3-1.8-2.3-2.4c-2-1.2-4.4-1.2-6.3-0.8c-1.9,0.3-3.4,0.9-3.4,0.9s0,0.4,0.1,0.9c0.1,0.6,0.3,1.4,0.5,2.2&#10;&#9;&#9;&#9;&#9;c0.1,0.4,0.3,0.9,0.5,1.3c0.2,0.5,0.4,0.9,0.7,1.3c0.6,0.9,1.3,1.7,2.2,2.3c2.6,1.7,6.2,1.3,8.3,0.9c0,0-0.4-0.4-1-0.9&#10;&#9;&#9;&#9;&#9;c-0.6-0.5-1.4-1.3-2.3-2c-1.7-1.4-3.3-2.8-3.3-2.8s0.5,0.2,1.2,0.6c0.7,0.3,1.7,0.8,2.7,1.3c1.2,0.6,2.4,1.2,3.2,1.6&#10;&#9;&#9;&#9;&#9;c0.5,2.9,1.1,6.6,1.6,10.8c-0.6-1.3-1.4-2.5-2.5-3.3c-2.1-1.5-4.8-1.7-7-1.6c-2.2,0.2-3.9,0.7-3.9,0.7s0,0.4,0,1.1&#10;&#9;&#9;&#9;&#9;c0,0.7,0.2,1.5,0.4,2.5c0.5,2,1.3,4.3,3.3,5.9c2.7,2.1,6.8,2.1,9.1,1.8c0,0-0.4-0.5-1-1.1c-0.6-0.7-1.4-1.6-2.3-2.4&#10;&#9;&#9;&#9;&#9;c-0.8-0.9-1.7-1.7-2.3-2.4c-0.6-0.6-1.1-1.1-1.1-1.1s0.5,0.3,1.3,0.7c0.8,0.5,1.8,1.1,2.9,1.7c1.4,0.8,2.8,1.7,3.6,2.2&#10;&#9;&#9;&#9;&#9;c0.3,2.8,0.5,5.7,0.6,8.8c0,0.7,0.1,1.4,0.1,2.1c-0.2-0.8-0.5-1.6-0.9-2.3c-0.5-0.8-1-1.6-1.8-2.3c-2.2-1.9-5.2-2.4-7.7-2.4&#10;&#9;&#9;&#9;&#9;c-2.5,0-4.4,0.4-4.4,0.4s0,0.5,0,1.2c0,0.7,0.1,1.7,0.2,2.9c0.3,2.3,1.1,5,3.2,6.8c2.8,2.6,7.4,3,10,2.9c0,0-0.4-0.5-1.1-1.4&#10;&#9;&#9;&#9;&#9;c-0.6-0.8-1.5-1.9-2.4-3c-0.9-1-1.7-2.1-2.4-2.9c-0.7-0.8-1.1-1.3-1.1-1.3s0.6,0.4,1.4,1c0.8,0.6,2,1.4,3.1,2.2&#10;&#9;&#9;&#9;&#9;c1.6,1.1,3.2,2.3,4,2.9c0,1.7,0,3.3-0.1,5c0,1.7-0.1,3.5-0.2,5.2c-0.3-1.7-1-3.5-2.3-4.8c-2-2.1-5-2.8-7.5-3&#10;&#9;&#9;&#9;&#9;c-2.5-0.2-4.4,0-4.4,0s0,0.1,0,0.3c0,0.2-0.1,0.5-0.1,0.9c-0.1,0.7-0.1,1.7,0,2.9c0.1,1.1,0.2,2.4,0.6,3.6c0.4,1.2,1,2.4,1.9,3.5&#10;&#9;&#9;&#9;&#9;c0.7,0.7,1.4,1.3,2.3,1.8c0.8,0.5,1.7,0.8,2.6,1.1c1.8,0.6,3.6,0.8,4.9,0.9c0,0-0.4-0.6-0.9-1.5c-0.6-0.9-1.3-2-2.1-3.2&#10;&#9;&#9;&#9;&#9;c-0.4-0.6-0.8-1.1-1.1-1.7c-0.4-0.5-0.7-1-1-1.4c-0.6-0.8-1-1.4-1-1.4s0.5,0.4,1.3,1.1c0.8,0.7,1.9,1.5,2.9,2.4&#10;&#9;&#9;&#9;&#9;c1.5,1.3,3,2.6,3.7,3.2c0,0.4-0.1,0.7-0.1,1.1c-0.1,0.5-0.1,1.1-0.2,1.6c-0.2,2.5-0.5,5-0.9,7.4c-0.2-1.7-0.7-3.5-1.9-5&#10;&#9;&#9;&#9;&#9;c-1.8-2.2-4.7-3.2-7.2-3.6c-2.4-0.4-4.4-0.3-4.4-0.3s-0.1,0.4-0.2,1.2c-0.1,0.7-0.2,1.7-0.3,2.9c0,1.1,0,2.4,0.3,3.7&#10;&#9;&#9;&#9;&#9;c0.3,1.3,0.8,2.5,1.6,3.6c0.6,0.8,1.3,1.4,2.1,2c0.8,0.5,1.6,1,2.5,1.4c1.7,0.7,3.5,1.1,4.8,1.3c0,0-0.3-0.6-0.8-1.5&#10;&#9;&#9;&#9;&#9;c-0.5-0.9-1.2-2.1-1.8-3.3c-0.7-1.2-1.3-2.4-1.9-3.2c-0.5-0.9-0.9-1.5-0.9-1.5s0.5,0.5,1.2,1.2c0.8,0.7,1.7,1.7,2.7,2.7&#10;&#9;&#9;&#9;&#9;c1,1,1.9,2,2.7,2.7c0.3,0.3,0.6,0.6,0.7,0.8c0,0.3-0.1,0.6-0.1,0.9c-0.6,3.1-1.2,6.1-1.9,9.2c-0.1-1.7-0.5-3.6-1.5-5.1&#10;&#9;&#9;&#9;&#9;c-1.6-2.4-4.5-3.6-6.9-4.3c-2.4-0.6-4.4-0.7-4.4-0.7s-0.2,0.4-0.3,1.1c-0.1,0.4-0.2,0.8-0.3,1.3c-0.1,0.5-0.2,1-0.3,1.6&#10;&#9;&#9;&#9;&#9;c-0.1,1.1-0.2,2.4,0,3.7c0.2,1.3,0.6,2.6,1.3,3.7c0.3,0.4,0.6,0.8,0.9,1.1c0.3,0.4,0.7,0.7,1,1c0.7,0.6,1.5,1.1,2.4,1.6&#10;&#9;&#9;&#9;&#9;c1.7,0.9,3.4,1.4,4.6,1.7c0,0-0.3-0.6-0.7-1.6c-0.4-0.9-1-2.2-1.5-3.5c-0.6-1.2-1.1-2.5-1.6-3.4c-0.5-0.9-0.8-1.5-0.8-1.5&#10;&#9;&#9;&#9;&#9;s1.8,2.1,3.6,4.2c1.2,1.5,2.5,3,3.1,3.8c-0.9,3.4-1.9,6.7-2.9,9.8c0.1-1.8-0.1-3.6-1-5.2c-1.4-2.5-4.1-4-6.5-4.8&#10;&#9;&#9;&#9;&#9;c-2.3-0.9-4.3-1.1-4.3-1.1s-0.2,0.4-0.4,1.1c-0.1,0.3-0.3,0.8-0.4,1.2c-0.1,0.5-0.3,1-0.4,1.5c-0.2,1.1-0.4,2.4-0.3,3.6&#10;&#9;&#9;&#9;&#9;c0,1.3,0.3,2.6,1,3.8c0.9,1.7,2.4,3.1,4,4.1c1.6,1,3.2,1.7,4.5,2.1c0,0-0.1-0.2-0.1-0.5c-0.1-0.3-0.2-0.7-0.4-1.2&#10;&#9;&#9;&#9;&#9;c-0.3-1-0.8-2.3-1.2-3.6c-0.5-1.3-0.9-2.6-1.3-3.5c-0.4-1-0.6-1.6-0.6-1.6s0.4,0.6,1,1.4c0.3,0.4,0.7,0.9,1,1.4&#10;&#9;&#9;&#9;&#9;c0.4,0.5,0.8,1.1,1.2,1.7c1.1,1.6,2.2,3.3,2.7,4.1c-1.3,3.6-2.7,7-4.1,10.2c0.3-1.7,0.3-3.6-0.5-5.3c-1.2-2.6-3.7-4.3-6-5.4&#10;&#9;&#9;&#9;&#9;c-2.2-1.1-4.2-1.5-4.2-1.5s-0.2,0.4-0.5,1c-0.2,0.3-0.3,0.7-0.5,1.2c-0.1,0.2-0.2,0.5-0.3,0.7c-0.1,0.2-0.2,0.5-0.3,0.8&#10;&#9;&#9;&#9;&#9;c-0.3,1.1-0.6,2.3-0.7,3.6c0,0.3,0,0.7,0,1c0,0.3,0,0.7,0.1,1c0.1,0.7,0.3,1.3,0.5,2c1.5,3.6,5.5,5.9,7.8,7c0,0-0.6-2.7-1.2-5.4&#10;&#9;&#9;&#9;&#9;c-0.3-1.3-0.7-2.6-0.9-3.6c-0.3-1-0.5-1.6-0.5-1.6s0.4,0.6,0.9,1.5c0.5,0.9,1.2,2.1,1.9,3.3c0.9,1.7,1.9,3.5,2.3,4.3&#10;&#9;&#9;&#9;&#9;c-0.5,1.1-1,2.2-1.5,3.2c-0.8,1.5-1.5,2.9-2.2,4.2c-0.4,0.8-0.9,1.6-1.3,2.4c0.2-0.8,0.4-1.6,0.4-2.5c0-1-0.1-1.9-0.4-2.9&#10;&#9;&#9;&#9;&#9;c-0.9-2.7-3.3-4.7-5.4-5.9c-2.1-1.3-4-1.9-4-1.9s-1.1,1.5-1.9,3.6c-0.4,1.1-0.8,2.2-1,3.5c-0.1,0.6-0.1,1.3-0.1,2&#10;&#9;&#9;&#9;&#9;c0,0.3,0.1,0.7,0.1,1c0.1,0.3,0.1,0.7,0.2,1c1.1,3.7,4.9,6.4,7.1,7.6c0,0-0.1-0.7-0.2-1.7c-0.1-1-0.3-2.4-0.5-3.7&#10;&#9;&#9;&#9;&#9;c-0.4-2.7-0.9-5.4-0.9-5.4s1.2,2.5,2.3,5c0.6,1.3,1.1,2.6,1.5,3.5c0.2,0.4,0.3,0.7,0.4,1c-0.1,0.2-0.2,0.3-0.3,0.5&#10;&#9;&#9;&#9;&#9;c-0.6,1-1.2,1.9-1.6,2.8c-0.5,0.8-1,1.6-1.4,2.2c-0.4,0.6-0.8,1.2-1,1.6c-0.6,0.9-0.9,1.3-0.9,1.3c-0.4,0.6-0.2,1.4,0.4,1.8&#10;&#9;&#9;&#9;&#9;c0.6,0.4,1.4,0.2,1.8-0.4c0,0,0.3-0.5,0.9-1.4c0.3-0.4,0.6-1,1.1-1.6c0.4-0.6,0.9-1.4,1.4-2.2c0.5-0.8,1.1-1.8,1.7-2.8&#10;&#9;&#9;&#9;&#9;c0.1-0.2,0.2-0.3,0.3-0.5c0.3,0,0.7-0.1,1.1-0.1c1.1-0.1,2.4-0.3,3.8-0.6c2.8-0.4,5.6-1,5.6-1s-2.6,1.3-5.2,2.4&#10;&#9;&#9;&#9;&#9;c-1.3,0.6-2.6,1.1-3.6,1.5c-1,0.4-1.6,0.7-1.6,0.7c2.2,1.4,6.3,3.6,10.3,2.4c0.4-0.1,0.7-0.2,1.1-0.4c0.3-0.2,0.7-0.3,1-0.5&#10;&#9;&#9;&#9;&#9;c0.6-0.4,1.2-0.9,1.8-1.4c1.1-1,2-2.2,2.7-3.4c1.4-2.3,2.1-4.4,2.1-4.4s-1.6-1.2-3.9-2.1c-2.3-0.9-5.4-1.5-8.1-0.6&#10;&#9;&#9;&#9;&#9;c-1,0.3-1.8,0.8-2.6,1.4c-0.7,0.5-1.3,1.1-1.9,1.7c0.4-0.8,0.9-1.6,1.3-2.4c0.7-1.4,1.4-2.8,2.2-4.3c0.5-1,1-2.1,1.6-3.2&#10;&#9;&#9;&#9;&#9;c1-0.2,2.9-0.7,4.9-1.1c1.4-0.3,2.7-0.7,3.8-1c1-0.3,1.7-0.5,1.7-0.5s-0.6,0.4-1.6,0.9c-0.9,0.6-2.2,1.3-3.4,2&#10;&#9;&#9;&#9;&#9;c-2.5,1.4-5,2.7-5,2.7c2.3,1.2,6.6,3,10.4,1.4c0.7-0.3,1.4-0.7,2-1.1c0.3-0.2,0.6-0.5,0.9-0.7c0.3-0.3,0.5-0.5,0.8-0.8&#10;&#9;&#9;&#9;&#9;c1-1.1,1.8-2.4,2.4-3.6c0.2-0.3,0.3-0.6,0.4-0.9c0.1-0.3,0.2-0.6,0.4-0.8c0.2-0.5,0.4-1,0.5-1.5c0.3-0.8,0.4-1.4,0.4-1.4&#10;&#9;&#9;&#9;&#9;s-1.7-1-4.1-1.7c-2.4-0.7-5.5-1-8.1,0.2c-1.7,0.8-3.2,2.1-4.2,3.5c1.4-3.3,2.8-6.7,4.1-10.4c0.9-0.3,2.8-0.9,4.7-1.6&#10;&#9;&#9;&#9;&#9;c0.7-0.2,1.3-0.5,2-0.7c0.6-0.2,1.2-0.5,1.7-0.6c1-0.4,1.7-0.6,1.7-0.6s-0.6,0.4-1.5,1.1c-0.9,0.6-2.1,1.5-3.3,2.3&#10;&#9;&#9;&#9;&#9;c-1.2,0.8-2.4,1.6-3.3,2.2c-0.4,0.3-0.8,0.5-1.1,0.7c-0.3,0.2-0.4,0.3-0.4,0.3c1.2,0.5,2.9,1.1,4.8,1.3c1.9,0.2,3.9,0.1,5.7-0.9&#10;&#9;&#9;&#9;&#9;c1.3-0.7,2.4-1.8,3.4-3c0.9-1.2,1.5-2.6,2.1-3.8c0.3-0.6,0.5-1.2,0.6-1.8c0.2-0.6,0.3-1.1,0.4-1.5c0.2-0.9,0.3-1.4,0.3-1.4&#10;&#9;&#9;&#9;&#9;s-1.8-0.8-4.3-1.3c-2.5-0.5-5.5-0.5-8.1,0.9c-1.7,0.9-3,2.4-3.9,3.9c1.1-3.2,2.1-6.6,3-10c0.9-0.4,2.7-1.2,4.6-2&#10;&#9;&#9;&#9;&#9;c2.6-1.2,5.1-2.4,5.1-2.4s-0.5,0.5-1.4,1.2c-0.8,0.7-1.9,1.6-3,2.6c-1.1,0.9-2.2,1.8-3.1,2.5c-0.8,0.7-1.4,1.1-1.4,1.1&#10;&#9;&#9;&#9;&#9;c1.2,0.4,3,0.8,4.9,0.9c0.9,0,1.9,0,2.9-0.2c0.5-0.1,1-0.2,1.4-0.4c0.5-0.2,0.9-0.4,1.3-0.7c1.3-0.8,2.3-2,3.1-3.3&#10;&#9;&#9;&#9;&#9;c0.8-1.3,1.3-2.7,1.7-4c0.2-0.7,0.4-1.3,0.5-1.8c0.1-0.6,0.2-1.1,0.2-1.5c0.1-0.9,0.1-1.4,0.1-1.4s-1.9-0.7-4.4-0.9&#10;&#9;&#9;&#9;&#9;c-2.5-0.2-5.6,0-8,1.6c-1.6,1.1-2.7,2.6-3.5,4.3c0.7-3.1,1.4-6.3,1.9-9.4c0-0.3,0.1-0.6,0.1-0.9c0.9-0.5,2.6-1.4,4.4-2.4&#10;&#9;&#9;&#9;&#9;c1.2-0.7,2.5-1.4,3.4-2c0.9-0.6,1.5-0.9,1.5-0.9s-0.5,0.5-1.2,1.3c-0.7,0.8-1.8,1.8-2.8,2.8c-1,1-2,2-2.8,2.7&#10;&#9;&#9;&#9;&#9;c-0.8,0.7-1.3,1.2-1.3,1.2c1.3,0.3,3.1,0.6,4.9,0.5c0.9-0.1,1.9-0.2,2.8-0.5c0.9-0.3,1.9-0.7,2.7-1.4c1.2-0.9,2.1-2.2,2.8-3.5&#10;&#9;&#9;&#9;&#9;c0.7-1.3,1.1-2.8,1.4-4.1c0.3-1.3,0.4-2.5,0.4-3.4c0-0.9,0-1.4,0-1.4s-1.9-0.5-4.4-0.5c-2.5,0-5.6,0.5-7.8,2.3&#10;&#9;&#9;&#9;&#9;c-1.5,1.2-2.5,2.9-3.2,4.5c0.4-2.6,0.7-5.1,0.9-7.6c0.1-0.6,0.1-1.1,0.2-1.6c0-0.4,0.1-0.7,0.1-1.1c0.8-0.5,2.5-1.6,4.2-2.8&#10;&#9;&#9;&#9;&#9;c1.2-0.8,2.3-1.6,3.2-2.2c0.9-0.6,1.4-1,1.4-1s-0.5,0.6-1.1,1.4C404.6,676.6,404.2,677.1,403.7,677.6z" style="fill: rgb(204, 204, 204); opacity: 1;"/>
			<path class="st0" d="M176,677.6c0.4,0.5,0.9,1.1,1.4,1.6c0.9,1.1,1.9,2.2,2.6,3c0.7,0.8,1.2,1.3,1.2,1.3c-1.3,0.2-3.1,0.3-5,0&#10;&#9;&#9;&#9;&#9;c-0.9-0.1-1.9-0.4-2.8-0.7c-0.9-0.4-1.8-0.9-2.5-1.6c-1.1-1-1.9-2.3-2.5-3.7c-0.5-1.4-0.9-2.9-1-4.2c-0.1-1.3-0.2-2.6-0.1-3.4&#10;&#9;&#9;&#9;&#9;c0-0.4,0-0.8,0.1-1c0-0.2,0-0.4,0-0.4s2-0.3,4.4-0.2c2.5,0.2,5.5,0.9,7.6,3c1.4,1.3,2.2,3,2.7,4.7c-0.1-1.8-0.2-3.6-0.2-5.3&#10;&#9;&#9;&#9;&#9;c-0.1-1.7-0.1-3.4-0.1-5.1c-0.8-0.6-2.4-1.8-3.9-3.1c-1.1-0.9-2.2-1.8-3-2.5c-0.8-0.7-1.3-1.2-1.3-1.2s0.4,0.6,1,1.5&#10;&#9;&#9;&#9;&#9;c0.6,0.9,1.4,2.1,2.3,3.2c0.8,1.2,1.7,2.3,2.3,3.2c0.6,0.8,1.1,1.4,1.1,1.4c-2.6,0.1-7.2-0.1-10-3.2c-2-2.2-2.7-5.5-2.8-8.2&#10;&#9;&#9;&#9;&#9;c-0.1-1.4,0.1-2.6,0.2-3.4c0.1-0.9,0.2-1.4,0.2-1.4s2-0.2,4.4,0.2c2.5,0.4,5.4,1.4,7.3,3.6c0.7,0.8,1.2,1.6,1.6,2.5&#10;&#9;&#9;&#9;&#9;c0.3,0.8,0.6,1.6,0.8,2.4c0-0.7,0-1.4,0.1-2.1c0.1-3.1,0.3-6.1,0.6-9c-0.7-0.6-1.9-1.8-3.1-2.9c-0.9-0.9-1.8-1.8-2.5-2.4&#10;&#9;&#9;&#9;&#9;c-0.7-0.7-1.1-1.1-1.1-1.1s0.3,0.6,0.8,1.4c0.5,0.8,1.1,1.9,1.8,3c0.6,1.1,1.3,2.2,1.8,3c0.5,0.8,0.8,1.3,0.8,1.3&#10;&#9;&#9;&#9;&#9;c-2.3-0.1-6.3-0.7-8.6-3.6c-1.6-2.1-2-5-1.8-7.4c0-1.2,0.2-2.2,0.4-3c0.2-0.8,0.3-1.2,0.3-1.2s1.8,0,3.9,0.5&#10;&#9;&#9;&#9;&#9;c2.1,0.5,4.7,1.6,6.2,3.7c0.9,1.2,1.4,2.6,1.6,4c0.5-4.3,1.1-8,1.6-11c-0.6-0.6-1.5-1.7-2.4-2.7c-0.7-0.9-1.5-1.7-2-2.4&#10;&#9;&#9;&#9;&#9;c-0.5-0.7-0.9-1.1-0.9-1.1s0.9,2.1,1.9,4.1c0.5,1,1,2,1.4,2.8c0.4,0.8,0.6,1.3,0.6,1.3c-1-0.1-2.4-0.4-3.8-1&#10;&#9;&#9;&#9;&#9;c-1.4-0.6-2.7-1.5-3.6-2.9c-0.6-1-1-2.2-1.1-3.3c-0.1-0.6-0.1-1.2-0.1-1.8c0-0.6,0.1-1.1,0.1-1.7c0.1-1.1,0.4-2,0.6-2.6&#10;&#9;&#9;&#9;&#9;c0.2-0.7,0.4-1.1,0.4-1.1s1.6,0.1,3.4,0.8c1.9,0.6,4,1.8,5.2,3.8c0.6,1,0.9,2.1,1.1,3.2c0-0.1,0-0.2,0.1-0.3&#10;&#9;&#9;&#9;&#9;c0.2-0.7,0.3-1.4,0.4-1.9c0.1-0.5,0.2-0.9,0.3-1.2c0.1-0.3,0.1-0.4,0.1-0.4c0.2-0.7,0.9-1.2,1.6-1c0.7,0.2,1.1,0.9,1,1.6&#10;&#9;&#9;&#9;&#9;c0,0,0,0.1-0.1,0.4c-0.1,0.3-0.2,0.6-0.3,1.2c-0.1,0.5-0.2,1.1-0.4,1.9c0,0.1,0,0.2-0.1,0.3c0.6-0.9,1.3-1.8,2.3-2.4&#10;&#9;&#9;&#9;&#9;c2-1.2,4.4-1.2,6.3-0.8c1.9,0.3,3.4,0.9,3.4,0.9s0,0.4-0.1,0.9c-0.1,0.6-0.3,1.4-0.5,2.2c-0.1,0.4-0.3,0.9-0.5,1.3&#10;&#9;&#9;&#9;&#9;c-0.2,0.5-0.4,0.9-0.7,1.3c-0.6,0.9-1.3,1.7-2.2,2.3c-2.6,1.7-6.2,1.3-8.3,0.9c0,0,0.4-0.4,1-0.9c0.6-0.5,1.4-1.3,2.3-2&#10;&#9;&#9;&#9;&#9;c1.7-1.4,3.3-2.8,3.3-2.8s-0.5,0.2-1.2,0.6c-0.7,0.3-1.7,0.8-2.7,1.3c-1.2,0.6-2.4,1.2-3.2,1.6c-0.5,2.9-1.1,6.6-1.6,10.8&#10;&#9;&#9;&#9;&#9;c0.6-1.3,1.4-2.5,2.5-3.3c2.1-1.5,4.8-1.7,7-1.6c2.2,0.2,3.9,0.7,3.9,0.7s0,0.4,0,1.1c0,0.7-0.2,1.5-0.4,2.5&#10;&#9;&#9;&#9;&#9;c-0.5,2-1.3,4.3-3.3,5.9c-2.7,2.1-6.8,2.1-9.1,1.8c0,0,0.4-0.5,1-1.1c0.6-0.7,1.4-1.6,2.3-2.4c0.8-0.9,1.7-1.7,2.3-2.4&#10;&#9;&#9;&#9;&#9;c0.6-0.6,1.1-1.1,1.1-1.1s-0.5,0.3-1.3,0.7c-0.8,0.5-1.8,1.1-2.9,1.7c-1.4,0.8-2.8,1.7-3.6,2.2c-0.3,2.8-0.5,5.7-0.6,8.8&#10;&#9;&#9;&#9;&#9;c0,0.7-0.1,1.4-0.1,2.1c0.2-0.8,0.5-1.6,0.9-2.3c0.5-0.8,1-1.6,1.8-2.3c2.2-1.9,5.2-2.4,7.7-2.4c2.5,0,4.4,0.4,4.4,0.4&#10;&#9;&#9;&#9;&#9;s0,0.5,0,1.2c0,0.7-0.1,1.7-0.2,2.9c-0.3,2.3-1.1,5-3.2,6.8c-2.8,2.6-7.4,3-10,2.9c0,0,0.4-0.5,1.1-1.4c0.6-0.8,1.5-1.9,2.4-3&#10;&#9;&#9;&#9;&#9;c0.9-1,1.7-2.1,2.4-2.9c0.7-0.8,1.1-1.3,1.1-1.3s-0.6,0.4-1.4,1c-0.8,0.6-2,1.4-3.1,2.2c-1.6,1.1-3.2,2.3-4,2.9&#10;&#9;&#9;&#9;&#9;c0,1.7,0,3.3,0.1,5c0,1.7,0.1,3.5,0.2,5.2c0.3-1.7,1-3.5,2.3-4.8c2-2.1,5-2.8,7.5-3c2.5-0.2,4.4,0,4.4,0s0,0.1,0,0.3&#10;&#9;&#9;&#9;&#9;c0,0.2,0.1,0.5,0.1,0.9c0.1,0.7,0.1,1.7,0,2.9c-0.1,1.1-0.2,2.4-0.6,3.6c-0.4,1.2-1,2.4-1.9,3.5c-0.7,0.7-1.4,1.3-2.3,1.8&#10;&#9;&#9;&#9;&#9;c-0.8,0.5-1.7,0.8-2.6,1.1c-1.8,0.6-3.6,0.8-4.9,0.9c0,0,0.4-0.6,0.9-1.5c0.6-0.9,1.3-2,2.1-3.2c0.4-0.6,0.8-1.1,1.1-1.7&#10;&#9;&#9;&#9;&#9;c0.4-0.5,0.7-1,1-1.4c0.6-0.8,1-1.4,1-1.4s-0.5,0.4-1.3,1.1c-0.8,0.7-1.9,1.5-2.9,2.4c-1.5,1.3-3,2.6-3.7,3.2&#10;&#9;&#9;&#9;&#9;c0,0.4,0.1,0.7,0.1,1.1c0.1,0.5,0.1,1.1,0.2,1.6c0.2,2.5,0.5,5,0.9,7.4c0.2-1.7,0.7-3.5,1.9-5c1.8-2.2,4.7-3.2,7.2-3.6&#10;&#9;&#9;&#9;&#9;c2.4-0.4,4.4-0.3,4.4-0.3s0.1,0.4,0.2,1.2c0.1,0.7,0.2,1.7,0.3,2.9c0,1.1,0,2.4-0.3,3.7c-0.3,1.3-0.8,2.5-1.6,3.6&#10;&#9;&#9;&#9;&#9;c-0.6,0.8-1.3,1.4-2.1,2c-0.8,0.5-1.6,1-2.5,1.4c-1.7,0.7-3.5,1.1-4.8,1.3c0,0,0.3-0.6,0.8-1.5c0.5-0.9,1.2-2.1,1.8-3.3&#10;&#9;&#9;&#9;&#9;c0.7-1.2,1.3-2.4,1.9-3.2c0.5-0.9,0.9-1.5,0.9-1.5s-0.5,0.5-1.2,1.2c-0.8,0.7-1.7,1.7-2.7,2.7c-1,1-1.9,2-2.7,2.7&#10;&#9;&#9;&#9;&#9;c-0.3,0.3-0.6,0.6-0.7,0.8c0,0.3,0.1,0.6,0.1,0.9c0.6,3.1,1.2,6.1,1.9,9.2c0.1-1.7,0.5-3.6,1.5-5.1c1.6-2.4,4.5-3.6,6.9-4.3&#10;&#9;&#9;&#9;&#9;c2.4-0.6,4.4-0.7,4.4-0.7s0.2,0.4,0.3,1.1c0.1,0.4,0.2,0.8,0.3,1.3c0.1,0.5,0.2,1,0.3,1.6c0.1,1.1,0.2,2.4,0,3.7&#10;&#9;&#9;&#9;&#9;c-0.2,1.3-0.6,2.6-1.3,3.7c-0.3,0.4-0.6,0.8-0.9,1.1c-0.3,0.4-0.7,0.7-1,1c-0.7,0.6-1.5,1.1-2.4,1.6c-1.7,0.9-3.4,1.4-4.6,1.7&#10;&#9;&#9;&#9;&#9;c0,0,0.3-0.6,0.7-1.6c0.4-0.9,1-2.2,1.5-3.5c0.6-1.2,1.1-2.5,1.6-3.4c0.5-0.9,0.8-1.5,0.8-1.5s-1.8,2.1-3.6,4.2&#10;&#9;&#9;&#9;&#9;c-1.2,1.5-2.5,3-3.1,3.8c0.9,3.4,1.9,6.7,2.9,9.8c-0.1-1.8,0.1-3.6,1-5.2c1.4-2.5,4.1-4,6.5-4.8c2.3-0.9,4.3-1.1,4.3-1.1&#10;&#9;&#9;&#9;&#9;s0.2,0.4,0.4,1.1c0.1,0.3,0.3,0.8,0.4,1.2c0.1,0.5,0.3,1,0.4,1.5c0.2,1.1,0.4,2.4,0.3,3.6c0,1.3-0.3,2.6-1,3.8&#10;&#9;&#9;&#9;&#9;c-0.9,1.7-2.4,3.1-4,4.1c-1.6,1-3.2,1.7-4.5,2.1c0,0,0.1-0.2,0.1-0.5c0.1-0.3,0.2-0.7,0.4-1.2c0.3-1,0.8-2.3,1.2-3.6&#10;&#9;&#9;&#9;&#9;c0.5-1.3,0.9-2.6,1.3-3.5c0.4-1,0.6-1.6,0.6-1.6s-0.4,0.6-1,1.4c-0.3,0.4-0.7,0.9-1,1.4c-0.4,0.5-0.8,1.1-1.2,1.7&#10;&#9;&#9;&#9;&#9;c-1.1,1.6-2.2,3.3-2.7,4.1c1.3,3.6,2.7,7,4.1,10.2c-0.3-1.7-0.3-3.6,0.5-5.3c1.2-2.6,3.7-4.3,6-5.4c2.2-1.1,4.2-1.5,4.2-1.5&#10;&#9;&#9;&#9;&#9;s0.2,0.4,0.5,1c0.2,0.3,0.3,0.7,0.5,1.2c0.1,0.2,0.2,0.5,0.3,0.7c0.1,0.2,0.2,0.5,0.3,0.8c0.3,1.1,0.6,2.3,0.7,3.6&#10;&#9;&#9;&#9;&#9;c0,0.3,0,0.7,0,1c0,0.3,0,0.7-0.1,1c-0.1,0.7-0.3,1.3-0.5,2c-1.5,3.6-5.5,5.9-7.8,7c0,0,0.6-2.7,1.2-5.4c0.3-1.3,0.7-2.6,0.9-3.6&#10;&#9;&#9;&#9;&#9;c0.3-1,0.5-1.6,0.5-1.6s-0.4,0.6-0.9,1.5c-0.5,0.9-1.2,2.1-1.9,3.3c-0.9,1.7-1.9,3.5-2.3,4.3c0.5,1.1,1,2.2,1.5,3.2&#10;&#9;&#9;&#9;&#9;c0.8,1.5,1.5,2.9,2.2,4.2c0.4,0.8,0.9,1.6,1.3,2.4c-0.2-0.8-0.4-1.6-0.4-2.5c0-1,0.1-1.9,0.4-2.9c0.9-2.7,3.3-4.7,5.4-5.9&#10;&#9;&#9;&#9;&#9;c2.1-1.3,4-1.9,4-1.9s1.1,1.5,1.9,3.6c0.4,1.1,0.8,2.2,1,3.5c0.1,0.6,0.1,1.3,0.1,2c0,0.3-0.1,0.7-0.1,1c-0.1,0.3-0.1,0.7-0.2,1&#10;&#9;&#9;&#9;&#9;c-1.1,3.7-4.9,6.4-7.1,7.6c0,0,0.1-0.7,0.2-1.7c0.1-1,0.3-2.4,0.5-3.7c0.4-2.7,0.9-5.4,0.9-5.4s-1.2,2.5-2.3,5&#10;&#9;&#9;&#9;&#9;c-0.6,1.3-1.1,2.6-1.5,3.5c-0.2,0.4-0.3,0.7-0.4,1c0.1,0.2,0.2,0.3,0.3,0.5c0.6,1,1.2,1.9,1.6,2.8c0.5,0.8,1,1.6,1.4,2.2&#10;&#9;&#9;&#9;&#9;c0.4,0.6,0.8,1.2,1,1.6c0.6,0.9,0.9,1.3,0.9,1.3c0.4,0.6,0.2,1.4-0.4,1.8c-0.6,0.4-1.4,0.2-1.8-0.4c0,0-0.3-0.5-0.9-1.4&#10;&#9;&#9;&#9;&#9;c-0.3-0.4-0.6-1-1.1-1.6c-0.4-0.6-0.9-1.4-1.4-2.2c-0.5-0.8-1.1-1.8-1.7-2.8c-0.1-0.2-0.2-0.3-0.3-0.5c-0.3,0-0.7-0.1-1.1-0.1&#10;&#9;&#9;&#9;&#9;c-1.1-0.1-2.4-0.3-3.8-0.6c-2.8-0.4-5.6-1-5.6-1s2.6,1.3,5.2,2.4c1.3,0.6,2.6,1.1,3.6,1.5c1,0.4,1.6,0.7,1.6,0.7&#10;&#9;&#9;&#9;&#9;c-2.2,1.4-6.3,3.6-10.3,2.4c-0.4-0.1-0.7-0.2-1.1-0.4c-0.3-0.2-0.7-0.3-1-0.5c-0.6-0.4-1.2-0.9-1.8-1.4c-1.1-1-2-2.2-2.7-3.4&#10;&#9;&#9;&#9;&#9;c-1.4-2.3-2.1-4.4-2.1-4.4s1.6-1.2,3.9-2.1c2.3-0.9,5.4-1.5,8.1-0.6c1,0.3,1.8,0.8,2.6,1.4c0.7,0.5,1.3,1.1,1.9,1.7&#10;&#9;&#9;&#9;&#9;c-0.4-0.8-0.9-1.6-1.3-2.4c-0.7-1.4-1.4-2.8-2.2-4.3c-0.5-1-1-2.1-1.6-3.2c-1-0.2-2.9-0.7-4.9-1.1c-1.4-0.3-2.7-0.7-3.8-1&#10;&#9;&#9;&#9;&#9;c-1-0.3-1.7-0.5-1.7-0.5s0.6,0.4,1.6,0.9c0.9,0.6,2.2,1.3,3.4,2c2.5,1.4,5,2.7,5,2.7c-2.3,1.2-6.6,3-10.4,1.4&#10;&#9;&#9;&#9;&#9;c-0.7-0.3-1.4-0.7-2-1.1c-0.3-0.2-0.6-0.5-0.9-0.7c-0.3-0.3-0.5-0.5-0.8-0.8c-1-1.1-1.8-2.4-2.4-3.6c-0.2-0.3-0.3-0.6-0.4-0.9&#10;&#9;&#9;&#9;&#9;c-0.1-0.3-0.2-0.6-0.3-0.8c-0.2-0.5-0.4-1-0.5-1.5c-0.3-0.8-0.4-1.4-0.4-1.4s1.7-1,4.1-1.7c2.4-0.7,5.5-1,8.1,0.2&#10;&#9;&#9;&#9;&#9;c1.7,0.8,3.2,2.1,4.2,3.5c-1.4-3.3-2.8-6.7-4.1-10.4c-0.9-0.3-2.8-0.9-4.7-1.6c-0.7-0.2-1.3-0.5-2-0.7c-0.6-0.2-1.2-0.5-1.7-0.6&#10;&#9;&#9;&#9;&#9;c-1-0.4-1.7-0.6-1.7-0.6s0.6,0.4,1.5,1.1c0.9,0.6,2.1,1.5,3.3,2.3c1.2,0.8,2.4,1.6,3.3,2.2c0.4,0.3,0.8,0.5,1.1,0.7&#10;&#9;&#9;&#9;&#9;c0.3,0.2,0.4,0.3,0.4,0.3c-1.2,0.5-2.9,1.1-4.8,1.3c-1.9,0.2-3.9,0.1-5.7-0.9c-1.3-0.7-2.4-1.8-3.4-3c-0.9-1.2-1.5-2.6-2.1-3.8&#10;&#9;&#9;&#9;&#9;c-0.3-0.6-0.5-1.2-0.6-1.8c-0.2-0.6-0.3-1.1-0.4-1.5c-0.2-0.9-0.3-1.4-0.3-1.4s1.8-0.8,4.3-1.3c2.5-0.5,5.5-0.5,8.1,0.9&#10;&#9;&#9;&#9;&#9;c1.7,0.9,3,2.4,3.9,3.9c-1.1-3.2-2.1-6.6-3-10c-0.9-0.4-2.7-1.2-4.6-2c-2.6-1.2-5.1-2.4-5.1-2.4s0.5,0.5,1.4,1.2&#10;&#9;&#9;&#9;&#9;c0.8,0.7,1.9,1.6,3,2.6c1.1,0.9,2.2,1.8,3.1,2.5c0.8,0.7,1.4,1.1,1.4,1.1c-1.2,0.4-3,0.8-4.9,0.9c-0.9,0-1.9,0-2.9-0.2&#10;&#9;&#9;&#9;&#9;c-0.5-0.1-1-0.2-1.4-0.4c-0.5-0.2-0.9-0.4-1.3-0.7c-1.3-0.8-2.3-2-3.1-3.3c-0.8-1.3-1.3-2.7-1.7-4c-0.2-0.7-0.4-1.3-0.5-1.8&#10;&#9;&#9;&#9;&#9;c-0.1-0.6-0.2-1.1-0.2-1.5c-0.1-0.9-0.1-1.4-0.1-1.4s1.9-0.7,4.4-0.9c2.5-0.2,5.6,0,8,1.6c1.6,1.1,2.7,2.6,3.5,4.3&#10;&#9;&#9;&#9;&#9;c-0.7-3.1-1.4-6.3-1.9-9.4c0-0.3-0.1-0.6-0.1-0.9c-0.9-0.5-2.6-1.4-4.4-2.4c-1.2-0.7-2.5-1.4-3.4-2c-0.9-0.6-1.5-0.9-1.5-0.9&#10;&#9;&#9;&#9;&#9;s0.5,0.5,1.2,1.3c0.7,0.8,1.8,1.8,2.8,2.8c1,1,2,2,2.8,2.7c0.8,0.7,1.3,1.2,1.3,1.2c-1.3,0.3-3.1,0.6-4.9,0.5&#10;&#9;&#9;&#9;&#9;c-0.9-0.1-1.9-0.2-2.8-0.5c-0.9-0.3-1.9-0.7-2.7-1.4c-1.2-0.9-2.1-2.2-2.8-3.5c-0.7-1.3-1.1-2.8-1.4-4.1&#10;&#9;&#9;&#9;&#9;c-0.3-1.3-0.4-2.5-0.4-3.4c0-0.9,0-1.4,0-1.4s1.9-0.5,4.4-0.5c2.5,0,5.6,0.5,7.8,2.3c1.5,1.2,2.5,2.9,3.2,4.5&#10;&#9;&#9;&#9;&#9;c-0.4-2.6-0.7-5.1-0.9-7.6c-0.1-0.6-0.1-1.1-0.2-1.6c0-0.4-0.1-0.7-0.1-1.1c-0.8-0.5-2.5-1.6-4.2-2.8c-1.2-0.8-2.3-1.6-3.2-2.2&#10;&#9;&#9;&#9;&#9;c-0.9-0.6-1.4-1-1.4-1s0.5,0.6,1.1,1.4C175.2,676.6,175.6,677.1,176,677.6z" style="fill: rgb(204, 204, 204); opacity: 1;"/>
		</g>
		<g>
			<path d="M 260 603.5999755859375 L 319.79998779296875 603.5999755859375 L 321.5 598.7000122070312 L 258.29998779296875 598.7000122070312 Z" class="st0" style="fill: rgb(204, 204, 204); opacity: 1;"/>
			<path class="st0" d="M323,572c-2.8,0-5.1,2.3-5.1,5.1c0,0.3,0,0.5,0,0.8c-0.3,5.7-5,10.2-10.7,10.4c-6.3,0.2-11.5-4.8-11.5-11.1&#10;&#9;&#9;&#9;&#9;c0-1.9,3.1-5.5,3.9-7l-9.8-9.7l-9.8,9.7c0.9,1.7,4,5.6,3.9,7.7c-0.3,5.7-5,10.2-10.7,10.4c-6.3,0.2-11.5-4.8-11.5-11.1&#10;&#9;&#9;&#9;&#9;c0,0,0,0,0-0.1c0-2.8-2.2-5.2-5.1-5.2H249l8.2,23.8h3.3h4.4h22.8h4.2h22.8h4.4h3.3l8.2-23.8H323z" style="fill: rgb(204, 204, 204); opacity: 1;"/>
		</g>
	</g></svg>